<svg width="118" height="111" viewBox="0 0 118 111" fill="none" xmlns="http://www.w3.org/2000/svg">
<ellipse cx="59" cy="56.5" rx="55" ry="52.5" fill="#B2B2B2"/>
<path d="M62.667 2.76375C62.6145 3.51191 62.5619 4.26007 62.5094 5.00823C68.0059 5.51825 73.4012 6.79005 78.4907 8.79539C98.9869 16.5347 113.879 37.673 111.783 59.1885C110.037 86.5172 82.1858 106.636 55.5528 104.081C55.5528 104.081 55.5528 104.081 55.5528 104.081C28.8241 102.89 4.05806 79.0758 6.14778 51.7711C7.07931 30.1739 24.779 11.324 46.1557 6.52493C51.4755 5.25051 56.9956 4.74515 62.5094 5.00823C62.5619 4.26007 62.6145 3.51191 62.667 2.76375C56.9634 2.23659 51.1734 2.51456 45.5255 3.63024C22.8885 7.71695 2.70364 27.3773 1.09771 51.4165C-1.92949 81.8262 25.588 108.816 55.1326 110.066C55.1326 110.066 55.1326 110.066 55.1326 110.066C84.5619 112.957 115.581 90.0774 116.833 59.5431C118.602 35.5153 101.363 13.2272 79.5192 6.01717C74.0826 4.12317 68.3883 3.03882 62.667 2.76375ZM62.5094 5.00823L62.667 2.76375L62.5094 5.00823Z" fill="black"/>
<path d="M25.0321 79C24.1988 79.5 22.4321 80.8 22.0321 82C21.5321 83.5 27.0321 89 27.5321 89.5C28.0321 90 25.5321 95 24.5321 94.5" stroke="black" stroke-width="2" stroke-linecap="round"/>
<ellipse cx="59.5" cy="51" rx="45.5" ry="42" fill="#980000"/>
<ellipse cx="59.5" cy="47.5" rx="37.5" ry="34.5" fill="#B70B0B"/>
<circle cx="28.5" cy="36.5" r="1.5" fill="#FFA7A7"/>
<path d="M31.052 32.3943C30.974 32.6525 30.9511 32.9334 31.0231 33.1972C31.095 33.461 31.2531 33.6843 31.473 33.8248C31.693 33.9654 31.9621 34.0149 32.2316 33.9693C32.5013 33.9238 32.7465 33.785 32.948 33.6057C32.948 33.6057 32.948 33.6057 32.948 33.6057C33.2402 33.3912 33.6073 33.1042 33.9523 32.8568C36.8489 30.7875 39.794 29.0756 42.7306 27.407C42.9949 27.2582 43.2576 27.1141 43.5262 26.97C46.6195 25.3222 50.0518 23.8769 53.7792 22.5434C54.1847 22.3986 54.6253 22.2542 55 22.125C55.2596 22.0517 55.5086 21.9198 55.6921 21.717C55.8757 21.5145 55.9788 21.261 55.9788 21C55.9788 20.739 55.8757 20.4855 55.6921 20.283C55.5086 20.0802 55.2596 19.9483 55 19.875C55 19.875 55 19.875 55 19.875C54.482 19.7559 54.0275 19.6658 53.5456 19.5901C49.2561 18.9364 44.7134 19.5396 40.6911 21.6821C40.344 21.8683 40.0062 22.0635 39.6694 22.273C36.2945 24.3816 33.4203 27.3658 31.649 30.9937C31.4301 31.446 31.2503 31.8692 31.052 32.3943Z" fill="#FFA7A7"/>
<mask id="path-9-inside-1_458_87" fill="white">
<ellipse cx="59.5637" cy="51.2982" rx="42.5999" ry="46.3985" transform="rotate(-83.2269 59.5637 51.2982)"/>
</mask>
<path d="M64.9859 5.64411C64.7205 7.8784 64.4552 10.1127 64.1898 12.347C68.479 13.2332 72.5809 14.6795 76.3587 16.6285C91.6286 24.2723 100.918 40.92 98.0976 55.8747C95.1853 74.8858 74.6385 87.3434 55.601 84.6636C55.601 84.6636 55.601 84.6636 55.601 84.6636C36.4654 82.8096 19.4082 65.8859 21.0298 46.7216C21.7903 31.5223 34.7211 17.5136 51.3567 13.6591C55.4859 12.6492 59.8124 12.2039 64.1898 12.347C64.4552 10.1127 64.7205 7.8784 64.9859 5.64411C60.0916 4.68404 55.0087 4.40702 49.9388 4.88542C29.7434 6.39326 9.13662 22.3025 5.94826 44.9304C1.08778 73.581 26.1837 100.138 53.4781 102.538C53.4781 102.538 53.4781 102.538 53.4781 102.538C80.5753 106.598 111.194 86.6579 113.179 57.6659C115.38 34.9207 99.0725 14.6273 79.7921 8.43102C74.9753 6.77838 69.969 5.85715 64.9859 5.64411ZM64.1898 12.347L64.9859 5.64411L64.1898 12.347Z" fill="black" mask="url(#path-9-inside-1_458_87)"/>
</svg>
