<svg width="118" height="111" viewBox="0 0 118 111" fill="none" xmlns="http://www.w3.org/2000/svg">
<ellipse cx="59" cy="56.4999" rx="55" ry="52.5" fill="#B2B2B2"/>
<path d="M62.667 2.76363C62.6145 3.51179 62.5619 4.25995 62.5094 5.00811C68.0059 5.51813 73.4012 6.78993 78.4907 8.79526C98.9869 16.5346 113.879 37.6729 111.783 59.1884C110.037 86.5171 82.1858 106.636 55.5528 104.081C55.5528 104.081 55.5528 104.081 55.5528 104.081C28.8241 102.889 4.05806 79.0757 6.14778 51.771C7.07931 30.1738 24.779 11.3239 46.1557 6.52481C51.4755 5.25038 56.9956 4.74502 62.5094 5.00811C62.5619 4.25995 62.6145 3.51179 62.667 2.76363C56.9634 2.23647 51.1734 2.51443 45.5255 3.63012C22.8885 7.71683 2.70364 27.3772 1.09771 51.4164C-1.92949 81.826 25.588 108.816 55.1326 110.066C55.1326 110.066 55.1326 110.066 55.1326 110.066C84.5619 112.957 115.581 90.0772 116.833 59.543C118.602 35.5152 101.363 13.227 79.5192 6.01705C74.0826 4.12305 68.3883 3.03869 62.667 2.76363ZM62.5094 5.00811L62.667 2.76363L62.5094 5.00811Z" fill="black"/>
<path d="M25.0321 78.9999C24.1988 79.4999 22.4321 80.7999 22.0321 81.9999C21.5321 83.4999 27.0321 88.9999 27.5321 89.4999C28.0321 89.9999 25.5321 94.9999 24.5321 94.4999" stroke="black" stroke-width="2" stroke-linecap="round"/>
<ellipse cx="59.5" cy="51" rx="45.5" ry="42" fill="#B70B0B"/>
<ellipse cx="60" cy="47.4999" rx="39" ry="36.5" fill="#D40F0F"/>
<circle cx="30.5" cy="32.4999" r="1.5" fill="#FFA7A7"/>
<path d="M33.052 28.3942C32.974 28.6524 32.9511 28.9332 33.0231 29.1971C33.095 29.4608 33.2531 29.6842 33.473 29.8247C33.693 29.9652 33.9621 30.0148 34.2316 29.9692C34.5013 29.9237 34.7465 29.7849 34.948 29.6056C34.948 29.6056 34.948 29.6056 34.948 29.6056C35.2402 29.3911 35.6073 29.1041 35.9523 28.8567C38.8489 26.7874 41.794 25.0754 44.7306 23.4069C44.9949 23.2581 45.2576 23.1139 45.5262 22.9699C48.6195 21.322 52.0518 19.8768 55.7792 18.5433C56.1847 18.3984 56.6253 18.2541 57 18.1249C57.2596 18.0516 57.5086 17.9197 57.6921 17.7169C57.8757 17.5144 57.9788 17.2609 57.9788 16.9999C57.9788 16.7389 57.8757 16.4854 57.6921 16.2828C57.5086 16.0801 57.2596 15.9482 57 15.8749C57 15.8749 57 15.8749 57 15.8749C56.482 15.7558 56.0275 15.6657 55.5456 15.59C51.2561 14.9363 46.7134 15.5395 42.6911 17.682C42.344 17.8682 42.0062 18.0633 41.6694 18.2729C38.2945 20.3815 35.4203 23.3657 33.649 26.9936C33.4301 27.4459 33.2503 27.8691 33.052 28.3942Z" fill="#FFA7A7"/>
<mask id="path-9-inside-1_458_80" fill="white">
<ellipse cx="59.5637" cy="51.2981" rx="42.5999" ry="46.3985" transform="rotate(-83.2269 59.5637 51.2981)"/>
</mask>
<path d="M64.6542 8.43686C64.61 8.80924 64.5657 9.18162 64.5215 9.55401C69.0998 10.1597 73.5785 11.3872 77.7893 13.2128C94.7302 20.2534 106.944 38.4202 104.382 56.621C101.855 79.7907 77.1122 95.366 54.7165 92.1112C54.7165 92.1112 54.7165 92.1112 54.7165 92.1112C32.1813 90.0297 11.7747 69.0921 14.7458 45.9752C16.518 27.6806 32.647 12.88 50.7659 10.0033C55.2871 9.21482 59.9287 9.07052 64.5215 9.55401C64.5657 9.18162 64.61 8.80924 64.6542 8.43686C59.9753 7.8172 55.2075 7.84113 50.5296 8.54099C31.8174 11.0266 14.409 26.144 12.2322 45.6766C8.72127 70.3746 30.4677 92.9178 54.3626 95.0902C54.3626 95.0902 54.3626 95.0902 54.3626 95.0902C78.1016 98.5751 104.523 81.7527 106.895 56.9195C109.354 37.4203 95.9709 18.6459 78.3615 11.8465C73.9776 10.0704 69.3481 8.93039 64.6542 8.43686ZM64.5215 9.55401L64.6542 8.43686L64.5215 9.55401Z" fill="black" mask="url(#path-9-inside-1_458_80)"/>
</svg>
