<svg width="118" height="111" viewBox="0 0 118 111" fill="none" xmlns="http://www.w3.org/2000/svg">
<ellipse cx="59" cy="56.5" rx="55" ry="52.5" fill="#B2B2B2"/>
<path d="M62.667 2.76375C62.6145 3.51191 62.5619 4.26007 62.5094 5.00823C68.0059 5.51825 73.4012 6.79005 78.4907 8.79539C98.9869 16.5347 113.879 37.673 111.783 59.1885C110.037 86.5172 82.1858 106.636 55.5528 104.081C55.5528 104.081 55.5528 104.081 55.5528 104.081C28.8241 102.89 4.05806 79.0758 6.14778 51.7711C7.07931 30.1739 24.779 11.324 46.1557 6.52493C51.4755 5.25051 56.9956 4.74515 62.5094 5.00823C62.5619 4.26007 62.6145 3.51191 62.667 2.76375C56.9634 2.23659 51.1734 2.51456 45.5255 3.63024C22.8885 7.71695 2.70364 27.3773 1.09771 51.4165C-1.92949 81.8262 25.588 108.816 55.1326 110.066C55.1326 110.066 55.1326 110.066 55.1326 110.066C84.5619 112.957 115.581 90.0774 116.833 59.5431C118.602 35.5153 101.363 13.2272 79.5192 6.01717C74.0826 4.12317 68.3883 3.03882 62.667 2.76375ZM62.5094 5.00823L62.667 2.76375L62.5094 5.00823Z" fill="black"/>
<path d="M25.0321 79C24.1988 79.5 22.4321 80.8 22.0321 82C21.5321 83.5 27.0321 89 27.5321 89.5C28.0321 90 25.5321 95 24.5321 94.5" stroke="black" stroke-width="2" stroke-linecap="round"/>
<ellipse cx="59.5" cy="51" rx="45.5" ry="42" fill="#980000"/>
<ellipse cx="59.5" cy="47.5" rx="37.5" ry="34.5" fill="#B70B0B"/>
<circle cx="28.5" cy="35.5" r="1.5" fill="#FFA7A7"/>
<path d="M31.052 31.3943C30.974 31.6525 30.9511 31.9334 31.0231 32.1972C31.095 32.461 31.2531 32.6843 31.473 32.8248C31.693 32.9654 31.9621 33.0149 32.2316 32.9693C32.5013 32.9238 32.7465 32.785 32.948 32.6057C32.948 32.6057 32.948 32.6057 32.948 32.6057C33.2402 32.3912 33.6073 32.1042 33.9523 31.8568C36.8489 29.7875 39.794 28.0756 42.7306 26.407C42.9949 26.2582 43.2576 26.1141 43.5262 25.97C46.6195 24.3222 50.0518 22.8769 53.7792 21.5434C54.1847 21.3986 54.6253 21.2542 55 21.125C55.2596 21.0517 55.5086 20.9198 55.6921 20.717C55.8757 20.5145 55.9788 20.261 55.9788 20C55.9788 19.739 55.8757 19.4855 55.6921 19.283C55.5086 19.0802 55.2596 18.9483 55 18.875C55 18.875 55 18.875 55 18.875C54.482 18.7559 54.0275 18.6658 53.5456 18.5901C49.2561 17.9364 44.7134 18.5396 40.6911 20.6821C40.344 20.8683 40.0062 21.0635 39.6694 21.273C36.2945 23.3816 33.4203 26.3658 31.649 29.9937C31.4301 30.446 31.2503 30.8692 31.052 31.3943Z" fill="#FFA7A7"/>
<mask id="path-9-inside-1_458_87" fill="white">
<ellipse cx="59.5637" cy="51.2982" rx="42.5999" ry="46.3985" transform="rotate(-83.2269 59.5637 51.2982)"/>
</mask>
<path d="M64.8532 6.76126C64.6763 8.25079 64.4994 9.74032 64.3225 11.2298C68.7273 12.0039 72.9799 13.3626 76.9309 15.2623C92.8693 22.6648 103.329 39.9202 100.611 56.1733C97.8533 76.8478 75.628 90.5525 55.2472 87.6427C55.2472 87.6427 55.2472 87.6427 55.2472 87.6427C34.7518 85.6977 16.3548 67.1684 18.5162 46.4231C19.6814 29.9856 33.8915 15.6602 51.1204 12.1968C55.4063 11.2755 59.859 10.9506 64.3225 11.2298C64.4994 9.74032 64.6763 8.25079 64.8532 6.76126C60.0451 5.93735 55.0883 5.78071 50.1751 6.3477C30.573 8.24665 11.2456 23.8391 8.46185 45.229C4.14118 72.2985 27.8973 97.25 53.8319 99.5589C53.8319 99.5589 53.8319 99.5589 53.8319 99.5589C79.5858 103.389 108.526 84.6959 110.666 57.3674C112.969 35.9206 97.8319 16.2348 79.2199 9.79726C74.5762 8.09524 69.7206 7.08649 64.8532 6.76126ZM64.3225 11.2298L64.8532 6.76126L64.3225 11.2298Z" fill="black" mask="url(#path-9-inside-1_458_87)"/>
</svg>
