<svg width="248" height="210" viewBox="0 0 248 210" fill="none" xmlns="http://www.w3.org/2000/svg">
<path fill-rule="evenodd" clip-rule="evenodd" d="M155.5 207C204.93 207 245 167.377 245 118.5C245 69.6228 204.93 30 155.5 30C106.071 30 66 69.6228 66 118.5C66 167.377 106.071 207 155.5 207ZM153 178C185.585 178 212 151.585 212 119C212 86.4152 185.585 60 153 60C120.415 60 94 86.4152 94 119C94 151.585 120.415 178 153 178Z" fill="#D02337"/>
<path d="M212 119C212 151.585 185.585 178 153 178C120.415 178 94 151.585 94 119C94 86.4152 120.415 60 153 60C185.585 60 212 86.4152 212 119Z" fill="#35087A"/>
<path d="M34 136.5C34.8333 137 44.1813 141.447 73.7813 154.647C68.7809 143.61 66 131.376 66 118.5C66 111.622 66.7935 104.927 68.295 98.5H44.5L41.2228 110.36L36.6678 126.845L34 136.5Z" fill="#CCCCCC"/>
<path d="M15 113C17.4801 115.48 22.9128 120.421 36.6678 126.845L41.2228 110.36C39.1015 109.282 34.795 106.912 32.5 105C29.5 102.5 23 97.5 21 87C19 76.5 19.2899 65.3288 23 51.5C28.5 31 41.8333 11.1667 45 5.5L35.5 4L27.5 3C27.5 3 22.5 9.5 17 20.5C11.5 31.5 8.5 38 4.00001 58.5C2.48393 65.4066 2.00001 78 4.00001 91C6.00001 104 12.5 110.5 15 113Z" fill="#0CB6FF"/>
<path d="M15 113L13.2322 114.768L13.2322 114.768L15 113ZM4.00001 58.5L1.55815 57.964L1.55815 57.964L4.00001 58.5ZM27.5 3L27.8101 0.519305L26.3906 0.341873L25.5184 1.47572L27.5 3ZM32.5 105L34.1005 103.079L34.1005 103.079L32.5 105ZM23 51.5L20.5854 50.8522L20.5854 50.8522L23 51.5ZM45 5.5L47.1824 6.71955L48.9314 3.58977L45.3899 3.03059L45 5.5ZM73.7813 154.647L72.7631 156.93L78.7751 159.611L76.0585 153.615L73.7813 154.647ZM34 136.5L31.5903 135.834L31.0842 137.666L32.7138 138.644L34 136.5ZM44.5 98.5V96H42.5971L42.0903 97.8342L44.5 98.5ZM68.295 98.5L70.7294 99.0687L71.4463 96H68.295V98.5ZM35.5 4L35.8899 1.53059L35.8501 1.52431L35.8101 1.51931L35.5 4ZM16.7678 111.232C14.4162 108.881 8.35202 102.847 6.47094 90.6199L1.52908 91.3801C3.64801 105.153 10.5838 112.119 13.2322 114.768L16.7678 111.232ZM6.47094 90.6199C4.50637 77.8501 5.00625 65.5761 6.44187 59.036L1.55815 57.964C-0.038403 65.2372 -0.506347 78.1499 1.52908 91.3801L6.47094 90.6199ZM6.44187 59.036C10.8938 38.7548 13.8203 32.4495 19.2361 21.618L14.7639 19.382C9.17967 30.5505 6.10616 37.2452 1.55815 57.964L6.44187 59.036ZM19.2361 21.618C21.9392 16.2117 24.517 11.9164 26.4126 8.98131C27.3601 7.51423 28.1363 6.38833 28.6713 5.6348C28.9387 5.25808 29.1458 4.97456 29.2838 4.78814C29.3528 4.69494 29.4045 4.62602 29.4378 4.58188C29.4545 4.5598 29.4666 4.54393 29.4739 4.53431C29.4776 4.5295 29.4801 4.52625 29.4813 4.52458C29.482 4.52374 29.4823 4.5233 29.4824 4.52324C29.4824 4.52322 29.4823 4.52329 29.4822 4.52347C29.4821 4.52355 29.482 4.52375 29.4819 4.5238C29.4818 4.52402 29.4816 4.52428 27.5 3C25.5184 1.47572 25.5182 1.47603 25.518 1.47635C25.5178 1.47649 25.5176 1.47685 25.5174 1.47713C25.5169 1.4777 25.5164 1.47837 25.5158 1.47913C25.5146 1.48067 25.5132 1.4826 25.5114 1.48493C25.5078 1.48959 25.503 1.49583 25.4971 1.50366C25.4851 1.5193 25.4685 1.54127 25.4472 1.56949C25.4046 1.62593 25.3435 1.70741 25.265 1.81342C25.1081 2.02544 24.8816 2.33567 24.5944 2.7402C24.02 3.54917 23.2024 4.73577 22.2124 6.26869C20.233 9.33362 17.5608 13.7883 14.7639 19.382L19.2361 21.618ZM34.1005 103.079C31.1215 100.597 25.2765 96.0904 23.4558 86.5322L18.5442 87.4678C20.7235 98.9096 27.8785 104.403 30.8995 106.921L34.1005 103.079ZM23.4558 86.5322C21.5339 76.4419 21.7911 65.6535 25.4146 52.1478L20.5854 50.8522C16.7886 65.004 16.4661 76.5581 18.5442 87.4678L23.4558 86.5322ZM25.4146 52.1478C30.8082 32.0444 43.8669 12.6525 47.1824 6.71955L42.8176 4.28045C39.7997 9.68087 26.1918 29.9556 20.5854 50.8522L25.4146 52.1478ZM74.7995 152.363C60.0044 145.766 50.2769 141.358 44.1477 138.54C41.0825 137.13 38.9219 136.12 37.4798 135.433C36.7581 135.089 36.2225 134.829 35.8464 134.643C35.658 134.549 35.5158 134.477 35.4136 134.424C35.2992 134.364 35.27 134.346 35.2863 134.356L32.7138 138.644C33.2822 138.985 36.0069 140.299 42.0586 143.082C48.2117 145.912 57.9581 150.328 72.7631 156.93L74.7995 152.363ZM44.5 101H68.295V96H44.5V101ZM242.5 118.5C242.5 165.97 203.575 204.5 155.5 204.5V209.5C206.284 209.5 247.5 168.784 247.5 118.5H242.5ZM155.5 204.5C107.425 204.5 68.5 165.97 68.5 118.5H63.5C63.5 168.784 104.716 209.5 155.5 209.5V204.5ZM68.5 118.5C68.5 71.0299 107.425 32.5 155.5 32.5V27.5C104.716 27.5 63.5 68.2157 63.5 118.5H68.5ZM155.5 32.5C203.575 32.5 242.5 71.0299 242.5 118.5H247.5C247.5 68.2157 206.284 27.5 155.5 27.5V32.5ZM209.5 119C209.5 150.204 184.204 175.5 153 175.5V180.5C186.966 180.5 214.5 152.966 214.5 119H209.5ZM153 175.5C121.796 175.5 96.5 150.204 96.5 119H91.5C91.5 152.966 119.035 180.5 153 180.5V175.5ZM96.5 119C96.5 87.7959 121.796 62.5 153 62.5V57.5C119.035 57.5 91.5 85.0345 91.5 119H96.5ZM153 62.5C184.204 62.5 209.5 87.7959 209.5 119H214.5C214.5 85.0345 186.966 57.5 153 57.5V62.5ZM76.0585 153.615C71.2018 142.896 68.5 131.013 68.5 118.5H63.5C63.5 131.74 66.3601 144.325 71.5041 155.678L76.0585 153.615ZM68.5 118.5C68.5 111.815 69.2712 105.311 70.7294 99.0687L65.8605 97.9313C64.3159 104.543 63.5 111.429 63.5 118.5H68.5ZM27.1899 5.48069L35.1899 6.48069L35.8101 1.51931L27.8101 0.519305L27.1899 5.48069ZM35.1101 6.46941L44.6101 7.96941L45.3899 3.03059L35.8899 1.53059L35.1101 6.46941ZM13.2322 114.768C15.9301 117.466 21.6067 122.57 35.6098 129.11L37.7257 124.58C24.2188 118.271 19.0302 113.495 16.7678 111.232L13.2322 114.768ZM39.0775 127.511L43.6325 111.026L38.8131 109.694L34.2581 126.179L39.0775 127.511ZM42.3555 108.132C40.2313 107.052 36.1557 104.792 34.1005 103.079L30.8995 106.921C33.4342 109.033 37.9718 111.512 40.0901 112.589L42.3555 108.132ZM42.618 108.264C42.5357 108.223 42.448 108.179 42.3555 108.132L40.0901 112.589C40.1918 112.641 40.2892 112.69 40.382 112.736L42.618 108.264ZM36.4097 137.166L39.0775 127.511L34.2581 126.179L31.5903 135.834L36.4097 137.166ZM43.6325 111.026L46.9097 99.1658L42.0903 97.8342L38.8131 109.694L43.6325 111.026ZM38.0528 124.732C37.9432 124.682 37.8342 124.631 37.7257 124.58L35.6098 129.11C35.7218 129.163 35.8342 129.215 35.9472 129.268L38.0528 124.732Z" fill="black"/>
<path d="M69 91C60 85.5 55.8333 80.5 54.5 78.5C53.1054 76.4081 50.3 70.8 55.5 60C60.7 49.2 60.5837 42.647 59 37.5C57 31 52 24.5 49.5 22C47 19.5 40.5 15 40.5 15L43 11L46 7C60 16.5 65.5377 26.6414 67.5 34C69.5 41.5 68.3489 47.6045 67.5 51C66.6511 54.3955 67 53 63 62.5C59 72 62.4188 74.9189 64 76.5C66 78.5 68.5 80.5 72.5 82.5L71 86.5L69 91Z" fill="#1ADB2D"/>
<path d="M40.1191 115.007L65.1191 118.007M225 119C225 158.765 192.764 191 153 191C113.235 191 81 158.765 81 119C81 79.2355 113.235 47 153 47C192.764 47 225 79.2355 225 119ZM69 91C60 85.5 55.8333 80.5 54.5 78.5C53.1054 76.4081 50.3 70.8 55.5 60C60.7 49.2 60.5837 42.647 59 37.5C57 31 52 24.5 49.5 22C47 19.5 40.5 15 40.5 15L43 11L46 7C60 16.5 65.5377 26.6414 67.5 34C69.5 41.5 68.3489 47.6045 67.5 51C66.6511 54.3955 67 53 63 62.5C59 72 62.4188 74.9189 64 76.5C66 78.5 68.5 80.5 72.5 82.5L71 86.5L69 91Z" stroke="black" stroke-width="2"/>
<ellipse cx="150" cy="111.5" rx="52" ry="49.5" fill="#57099B"/>
<path d="M141.5 85.5C140 87 129 96 119 103C116.5 105.167 111.3 108.2 110.5 103C109.5 96.5 112.5 94 113.5 92C114.5 90 116.5 87.5 121 84C125.5 80.5 131.5 77.5 134.5 76C137.108 74.6962 143.5 73.5 144 77.5C144.5 81.5 143 84 141.5 85.5Z" fill="#9F66D1" stroke="#9F66D1"/>
</svg>
