<svg width="248" height="210" viewBox="0 0 248 210" fill="none" xmlns="http://www.w3.org/2000/svg">
<path fill-rule="evenodd" clip-rule="evenodd" d="M155.5 207C204.93 207 245 167.377 245 118.5C245 69.6228 204.93 30 155.5 30C106.071 30 66 69.6228 66 118.5C66 167.377 106.071 207 155.5 207ZM153 178C185.585 178 212 151.585 212 119C212 86.4152 185.585 60 153 60C120.415 60 94 86.4152 94 119C94 151.585 120.415 178 153 178Z" fill="#D02337"/>
<path d="M212 119C212 151.585 185.585 178 153 178C120.415 178 94 151.585 94 119C94 86.4152 120.415 60 153 60C185.585 60 212 86.4152 212 119Z" fill="#35087A"/>
<path d="M34 136.5C34.8333 137 44.1813 141.447 73.7813 154.647C68.7809 143.61 66 131.376 66 118.5C66 111.622 66.7935 104.927 68.295 98.5H44.5L41.2228 110.36L36.6678 126.845L34 136.5Z" fill="#CCCCCC"/>
<path d="M15 113C17.4801 115.48 22.9128 120.421 36.6678 126.845L41.2228 110.36C39.1015 109.282 34.795 106.912 32.5 105C29.5 102.5 23 97.5 21 87C19 76.5 19.2899 65.3288 23 51.5C28.5 31 41.8333 11.1667 45 5.5L35.5 4L27.5 3C27.5 3 22.5 9.5 17 20.5C11.5 31.5 8.5 38 4.00001 58.5C2.48393 65.4066 2.00001 78 4.00001 91C6.00001 104 12.5 110.5 15 113Z" fill="#0CB6FF"/>
<path d="M15 113L13.2322 114.768H13.2322L15 113ZM4.00001 58.5L1.55815 57.964L4.00001 58.5ZM27.5 3L27.8101 0.519305L26.3906 0.341873L25.5184 1.47572L27.5 3ZM32.5 105L34.1005 103.079H34.1005L32.5 105ZM23 51.5L20.5854 50.8522L23 51.5ZM45 5.5L47.1824 6.71955L48.9314 3.58977L45.3899 3.03059L45 5.5ZM73.7813 154.647L72.7631 156.93L78.7751 159.611L76.0585 153.615L73.7813 154.647ZM34 136.5L31.5903 135.834L31.0842 137.666L32.7138 138.644L34 136.5ZM44.5 98.5V96H42.5971L42.0903 97.8342L44.5 98.5ZM68.295 98.5L70.7294 99.0687L71.4463 96H68.295V98.5ZM35.5 4L35.8899 1.53059L35.8501 1.52431L35.8101 1.51931L35.5 4ZM16.7678 111.232C14.4162 108.881 8.35202 102.847 6.47094 90.6199L1.52908 91.3801C3.64801 105.153 10.5838 112.119 13.2322 114.768L16.7678 111.232ZM6.47094 90.6199C4.50637 77.8501 5.00625 65.5761 6.44187 59.036L1.55815 57.964C-0.038403 65.2372 -0.506346 78.1499 1.52908 91.3801L6.47094 90.6199ZM6.44187 59.036C10.8938 38.7548 13.8203 32.4495 19.2361 21.618L14.7639 19.382C9.17967 30.5505 6.10616 37.2452 1.55815 57.964L6.44187 59.036ZM19.2361 21.618C21.9392 16.2117 24.517 11.9164 26.4126 8.98131C27.3601 7.51423 28.1363 6.38833 28.6713 5.6348C28.9387 5.25808 29.1458 4.97456 29.2838 4.78814C29.3528 4.69494 29.4045 4.62602 29.4378 4.58188C29.4545 4.5598 29.4666 4.54393 29.4739 4.53431C29.4776 4.5295 29.4801 4.52625 29.4813 4.52458C29.482 4.52374 29.4823 4.5233 29.4824 4.52324C29.4824 4.52322 29.4823 4.52329 29.4822 4.52347C29.4821 4.52355 29.482 4.52375 29.4819 4.5238C29.4818 4.52402 29.4816 4.52428 27.5 3C25.5184 1.47572 25.5182 1.47602 25.518 1.47635C25.5178 1.47649 25.5176 1.47685 25.5174 1.47713C25.5169 1.4777 25.5164 1.47837 25.5158 1.47913C25.5146 1.48067 25.5132 1.4826 25.5114 1.48493C25.5078 1.48959 25.503 1.49583 25.4971 1.50366C25.4851 1.5193 25.4685 1.54127 25.4472 1.56949C25.4046 1.62593 25.3435 1.70741 25.265 1.81342C25.1081 2.02544 24.8816 2.33567 24.5944 2.7402C24.02 3.54917 23.2024 4.73577 22.2124 6.26869C20.233 9.33362 17.5608 13.7883 14.7639 19.382L19.2361 21.618ZM34.1005 103.079C31.1215 100.597 25.2765 96.0904 23.4558 86.5322L18.5442 87.4678C20.7235 98.9096 27.8785 104.403 30.8995 106.921L34.1005 103.079ZM23.4558 86.5322C21.5339 76.4419 21.7911 65.6535 25.4146 52.1478L20.5854 50.8522C16.7886 65.004 16.4661 76.5581 18.5442 87.4678L23.4558 86.5322ZM25.4146 52.1478C30.8082 32.0444 43.8669 12.6525 47.1824 6.71955L42.8176 4.28044C39.7998 9.68087 26.1918 29.9556 20.5854 50.8522L25.4146 52.1478ZM74.7995 152.363C60.0044 145.766 50.2769 141.358 44.1477 138.54C41.0825 137.13 38.9219 136.12 37.4798 135.433C36.7581 135.089 36.2225 134.829 35.8464 134.643C35.658 134.549 35.5158 134.477 35.4136 134.424C35.2992 134.364 35.27 134.346 35.2863 134.356L32.7138 138.644C33.2822 138.985 36.0069 140.299 42.0586 143.082C48.2117 145.912 57.9581 150.328 72.7631 156.93L74.7995 152.363ZM44.5 101H68.295V96H44.5V101ZM242.5 118.5C242.5 165.97 203.575 204.5 155.5 204.5V209.5C206.284 209.5 247.5 168.784 247.5 118.5H242.5ZM155.5 204.5C107.425 204.5 68.5 165.97 68.5 118.5H63.5C63.5 168.784 104.716 209.5 155.5 209.5V204.5ZM68.5 118.5C68.5 71.0299 107.425 32.5 155.5 32.5V27.5C104.716 27.5 63.5 68.2157 63.5 118.5H68.5ZM155.5 32.5C203.575 32.5 242.5 71.0299 242.5 118.5H247.5C247.5 68.2157 206.284 27.5 155.5 27.5V32.5ZM209.5 119C209.5 150.204 184.204 175.5 153 175.5V180.5C186.966 180.5 214.5 152.966 214.5 119H209.5ZM153 175.5C121.796 175.5 96.5 150.204 96.5 119H91.5C91.5 152.966 119.035 180.5 153 180.5V175.5ZM96.5 119C96.5 87.7959 121.796 62.5 153 62.5V57.5C119.035 57.5 91.5 85.0345 91.5 119H96.5ZM153 62.5C184.204 62.5 209.5 87.7959 209.5 119H214.5C214.5 85.0345 186.966 57.5 153 57.5V62.5ZM76.0585 153.615C71.2018 142.896 68.5 131.013 68.5 118.5H63.5C63.5 131.74 66.3601 144.325 71.5041 155.678L76.0585 153.615ZM68.5 118.5C68.5 111.815 69.2712 105.311 70.7294 99.0687L65.8605 97.9313C64.3158 104.543 63.5 111.429 63.5 118.5H68.5ZM27.1899 5.48069L35.1899 6.48069L35.8101 1.51931L27.8101 0.519305L27.1899 5.48069ZM35.1101 6.46941L44.6101 7.96941L45.3899 3.03059L35.8899 1.53059L35.1101 6.46941ZM13.2322 114.768C15.9301 117.466 21.6067 122.57 35.6098 129.11L37.7257 124.58C24.2188 118.271 19.0302 113.495 16.7678 111.232L13.2322 114.768ZM39.0775 127.511L43.6325 111.026L38.8131 109.694L34.2581 126.179L39.0775 127.511ZM42.3555 108.132C40.2313 107.052 36.1557 104.792 34.1005 103.079L30.8995 106.921C33.4342 109.033 37.9718 111.512 40.0901 112.589L42.3555 108.132ZM42.618 108.264C42.5357 108.223 42.4481 108.179 42.3555 108.132L40.0901 112.589C40.1918 112.641 40.2892 112.69 40.382 112.736L42.618 108.264ZM36.4097 137.166L39.0775 127.511L34.2581 126.179L31.5903 135.834L36.4097 137.166ZM43.6325 111.026L46.9097 99.1658L42.0903 97.8342L38.8131 109.694L43.6325 111.026ZM38.0528 124.732C37.9432 124.682 37.8342 124.631 37.7257 124.58L35.6098 129.11C35.7218 129.163 35.8342 129.215 35.9472 129.268L38.0528 124.732Z" fill="black"/>
<path d="M69 91C60 85.5 55.8333 80.5 54.5 78.5C53.1054 76.4081 50.3 70.8 55.5 60C60.7 49.2 60.5837 42.647 59 37.5C57 31 52 24.5 49.5 22C47 19.5 40.5 15 40.5 15L43 11L46 7C60 16.5 65.5377 26.6414 67.5 34C69.5 41.5 68.3489 47.6045 67.5 51C66.6511 54.3955 67 53 63 62.5C59 72 62.4188 74.9189 64 76.5C66 78.5 68.5 80.5 72.5 82.5L71 86.5L69 91Z" fill="#1ADB2D"/>
<path d="M40.1191 115.007L65.1191 118.007M225 119C225 158.765 192.764 191 153 191C113.235 191 81 158.765 81 119C81 79.2355 113.235 47 153 47C192.764 47 225 79.2355 225 119ZM69 91C60 85.5 55.8333 80.5 54.5 78.5C53.1054 76.4081 50.3 70.8 55.5 60C60.7 49.2 60.5837 42.647 59 37.5C57 31 52 24.5 49.5 22C47 19.5 40.5 15 40.5 15L43 11L46 7C60 16.5 65.5377 26.6414 67.5 34C69.5 41.5 68.3489 47.6045 67.5 51C66.6511 54.3955 67 53 63 62.5C59 72 62.4188 74.9189 64 76.5C66 78.5 68.5 80.5 72.5 82.5L71 86.5L69 91Z" stroke="black" stroke-width="2"/>
<ellipse cx="150" cy="111.5" rx="52" ry="49.5" fill="#57099B"/>
<path d="M141.5 85.5C140 87 129 96 119 103C116.5 105.167 111.3 108.2 110.5 103C109.5 96.5 112.5 94 113.5 92C114.5 90 116.5 87.5 121 84C125.5 80.5 131.5 77.5 134.5 76C137.108 74.6962 143.5 73.5 144 77.5C144.5 81.5 143 84 141.5 85.5Z" fill="#9F66D1" stroke="#9F66D1"/>
<path d="M112.641 105.203C112.578 105.109 112.469 105.016 112.312 104.922C112.188 104.828 112.031 104.75 111.844 104.688C111.656 104.625 111.469 104.609 111.281 104.641C111.125 104.641 111 104.703 110.906 104.828C110.812 104.984 110.641 105.578 110.391 106.609C110.172 107.609 109.938 108.859 109.688 110.359C109.438 111.859 109.219 113.531 109.031 115.375C108.844 117.219 108.75 119.047 108.75 120.859C108.75 122.172 108.797 123.547 108.891 124.984C108.984 126.391 109.094 127.688 109.219 128.875C109.375 130.062 109.547 131.047 109.734 131.828C109.953 132.578 110.172 132.953 110.391 132.953C110.609 132.984 110.906 132.75 111.281 132.25C111.656 131.75 112.016 131.188 112.359 130.562C112.703 129.906 113.016 129.281 113.297 128.688C113.609 128.062 113.812 127.641 113.906 127.422C114.031 127.078 114.203 126.703 114.422 126.297C114.641 125.859 114.859 125.469 115.078 125.125C115.297 124.75 115.516 124.453 115.734 124.234C115.953 123.984 116.141 123.859 116.297 123.859C116.484 123.859 116.641 124.047 116.766 124.422C116.922 124.797 117.031 125.25 117.094 125.781C117.188 126.281 117.25 126.812 117.281 127.375C117.312 127.906 117.328 128.344 117.328 128.688C117.328 129.312 117.203 130.094 116.953 131.031C116.734 131.969 116.438 132.875 116.062 133.75C115.719 134.625 115.328 135.375 114.891 136C114.484 136.625 114.094 136.922 113.719 136.891C113.344 136.859 112.734 136.641 111.891 136.234C111.078 135.828 110.234 135.359 109.359 134.828C108.484 134.297 107.688 133.766 106.969 133.234C106.25 132.703 105.828 132.281 105.703 131.969C105.547 131.688 105.312 131.016 105 129.953C104.719 128.859 104.422 127.547 104.109 126.016C103.797 124.484 103.516 122.797 103.266 120.953C103.047 119.109 102.938 117.25 102.938 115.375C102.938 113.5 102.953 111.656 102.984 109.844C103.016 108 103.078 106.359 103.172 104.922C103.297 103.484 103.484 102.328 103.734 101.453C103.984 100.547 104.328 100.062 104.766 100C105.641 99.9062 106.594 99.9688 107.625 100.188C108.656 100.375 109.688 100.672 110.719 101.078C111.75 101.484 112.734 101.953 113.672 102.484C114.641 102.984 115.5 103.516 116.25 104.078C117 104.609 117.594 105.125 118.031 105.625C118.5 106.125 118.75 106.547 118.781 106.891C118.812 107.422 118.75 108.016 118.594 108.672C118.438 109.328 118.25 109.969 118.031 110.594C117.812 111.188 117.578 111.734 117.328 112.234C117.109 112.703 116.938 113.031 116.812 113.219C116.656 113.438 116.469 113.672 116.25 113.922C116.031 114.172 115.797 114.391 115.547 114.578C115.328 114.766 115.094 114.906 114.844 115C114.625 115.062 114.422 115.016 114.234 114.859C114.109 114.766 113.984 114.469 113.859 113.969C113.766 113.469 113.656 112.875 113.531 112.188C113.438 111.5 113.344 110.766 113.25 109.984C113.156 109.172 113.062 108.422 112.969 107.734C112.906 107.047 112.844 106.469 112.781 106C112.719 105.531 112.672 105.266 112.641 105.203ZM130.547 110.453C130.797 110.609 131.031 110.922 131.25 111.391C131.5 111.828 131.719 112.344 131.906 112.938C132.125 113.5 132.297 114.109 132.422 114.766C132.578 115.422 132.703 116.031 132.797 116.594C132.922 117.156 133 117.641 133.031 118.047C133.062 118.422 133.062 118.656 133.031 118.75C132.969 118.875 132.781 119 132.469 119.125C132.188 119.25 131.766 119.391 131.203 119.547C130.641 119.703 129.859 119.875 128.859 120.062C128.797 118.344 128.672 117.047 128.484 116.172C128.297 115.266 128.094 114.625 127.875 114.25C127.625 113.812 127.359 113.594 127.078 113.594C126.797 113.719 126.547 113.875 126.328 114.062C126.109 114.219 125.922 114.391 125.766 114.578C125.578 114.797 125.406 115.031 125.25 115.281C125.188 115.375 125.125 115.594 125.062 115.938C125 116.281 124.938 116.797 124.875 117.484C124.875 117.703 124.859 118.156 124.828 118.844C124.828 119.531 124.812 120.328 124.781 121.234C124.781 122.141 124.766 123.094 124.734 124.094C124.734 125.094 124.719 126.031 124.688 126.906C124.688 127.75 124.672 128.469 124.641 129.062C124.641 129.656 124.625 130 124.594 130.094C124.531 130.25 124.375 130.469 124.125 130.75C123.875 131.031 123.594 131.297 123.281 131.547C122.969 131.766 122.672 131.953 122.391 132.109C122.109 132.234 121.922 132.219 121.828 132.062C121.734 131.969 121.641 131.562 121.547 130.844C121.453 130.125 121.344 129.25 121.219 128.219C121.125 127.156 121.016 126 120.891 124.75C120.766 123.5 120.656 122.297 120.562 121.141C120.469 119.984 120.391 118.953 120.328 118.047C120.266 117.109 120.219 116.438 120.188 116.031C120.156 115.438 120.125 114.781 120.094 114.062C120.062 113.344 120.031 112.672 120 112.047C120 111.391 120 110.828 120 110.359C120.031 109.859 120.094 109.562 120.188 109.469C120.25 109.375 120.453 109.359 120.797 109.422C121.172 109.453 121.562 109.547 121.969 109.703C122.406 109.828 122.812 110 123.188 110.219C123.562 110.438 123.812 110.641 123.938 110.828C124.031 110.984 124.125 111.219 124.219 111.531C124.812 111.219 125.375 110.938 125.906 110.688C126.469 110.406 127 110.203 127.5 110.078C128.031 109.953 128.547 109.922 129.047 109.984C129.547 110.016 130.047 110.172 130.547 110.453ZM138.188 122.453C138.688 122.266 139.25 122.062 139.875 121.844C140.531 121.594 141.156 121.375 141.75 121.188C142.344 120.969 142.875 120.781 143.344 120.625C143.812 120.469 144.156 120.344 144.375 120.25C144.344 119.906 144.297 119.516 144.234 119.078C144.203 118.609 144.156 118.172 144.094 117.766C144.031 117.328 143.953 116.953 143.859 116.641C143.766 116.328 143.672 116.141 143.578 116.078C143.328 115.984 142.906 115.906 142.312 115.844C141.75 115.75 141.156 115.766 140.531 115.891C139.938 116.016 139.391 116.25 138.891 116.594C138.391 116.938 138.109 117.484 138.047 118.234C137.984 118.734 137.969 119.359 138 120.109C138.031 120.859 138.094 121.641 138.188 122.453ZM148.359 123.203C148.328 123.266 147.953 123.391 147.234 123.578C146.516 123.766 145.656 123.969 144.656 124.188C143.656 124.375 142.594 124.578 141.469 124.797C140.344 124.984 139.375 125.141 138.562 125.266C138.719 126.516 138.906 127.641 139.125 128.641C139.344 129.609 139.531 130.219 139.688 130.469C139.844 130.688 140.047 130.891 140.297 131.078C140.516 131.234 140.781 131.391 141.094 131.547C141.438 131.672 141.844 131.766 142.312 131.828C142.656 131.922 142.984 131.797 143.297 131.453C143.547 131.141 143.766 130.594 143.953 129.812C144.172 129.031 144.281 127.797 144.281 126.109C145.25 125.953 146 125.859 146.531 125.828C147.094 125.797 147.5 125.797 147.75 125.828C148.062 125.859 148.25 125.906 148.312 125.969C148.344 126.062 148.344 126.297 148.312 126.672C148.281 127.047 148.203 127.516 148.078 128.078C147.984 128.609 147.859 129.203 147.703 129.859C147.578 130.484 147.422 131.094 147.234 131.688C147.047 132.25 146.844 132.766 146.625 133.234C146.406 133.672 146.172 133.984 145.922 134.172C145.172 134.734 144.234 135.016 143.109 135.016C141.984 134.984 140.875 134.828 139.781 134.547C138.688 134.234 137.703 133.875 136.828 133.469C135.953 133.031 135.406 132.672 135.188 132.391C135.031 132.203 134.891 131.734 134.766 130.984C134.641 130.203 134.531 129.266 134.438 128.172C134.375 127.078 134.328 125.875 134.297 124.562C134.266 123.25 134.281 121.969 134.344 120.719C134.438 119.469 134.562 118.312 134.719 117.25C134.906 116.188 135.156 115.328 135.469 114.672C135.938 113.734 136.703 112.969 137.766 112.375C138.828 111.781 139.953 111.375 141.141 111.156C142.328 110.938 143.453 110.906 144.516 111.062C145.609 111.219 146.422 111.562 146.953 112.094C147.266 112.406 147.547 113.031 147.797 113.969C148.047 114.875 148.203 115.984 148.266 117.297C148.266 117.422 148.281 117.781 148.312 118.375C148.344 118.969 148.359 119.609 148.359 120.297C148.391 120.953 148.406 121.578 148.406 122.172C148.406 122.766 148.391 123.109 148.359 123.203ZM163.641 111.344C163.828 111.562 164 111.797 164.156 112.047C164.312 112.266 164.453 112.578 164.578 112.984C164.703 113.359 164.797 113.859 164.859 114.484C164.953 115.109 165 115.922 165 116.922C165 118.516 164.953 120.125 164.859 121.75C164.797 123.344 164.734 124.75 164.672 125.969C164.641 127.062 164.609 128.078 164.578 129.016C164.547 129.953 164.516 130.781 164.484 131.5C164.453 132.188 164.406 132.734 164.344 133.141C164.312 133.547 164.281 133.766 164.25 133.797C164.125 133.891 163.922 133.859 163.641 133.703C163.391 133.516 163.109 133.281 162.797 133C162.516 132.719 162.25 132.422 162 132.109C161.75 131.797 161.594 131.547 161.531 131.359C161.531 131.203 161.484 130.75 161.391 130C160.641 130.438 159.812 130.75 158.906 130.938C158 131.094 157.094 131.156 156.188 131.125C155.312 131.062 154.5 130.891 153.75 130.609C153 130.328 152.438 129.953 152.062 129.484C151.906 129.297 151.766 129.016 151.641 128.641C151.547 128.266 151.453 127.844 151.359 127.375C151.297 126.875 151.234 126.359 151.172 125.828C151.109 125.266 151.062 124.75 151.031 124.281C150.969 123.062 151.125 122.016 151.5 121.141C151.875 120.234 152.562 119.562 153.562 119.125C154 118.938 154.578 118.844 155.297 118.844C156.047 118.812 156.781 118.844 157.5 118.938C158.25 119 158.922 119.094 159.516 119.219C160.109 119.312 160.484 119.391 160.641 119.453C160.516 117.859 160.422 116.484 160.359 115.328C160.297 114.141 160.172 113.375 159.984 113.031C159.828 112.812 159.641 112.594 159.422 112.375C159.234 112.219 158.984 112.047 158.672 111.859C158.359 111.672 157.984 111.531 157.547 111.438C157.203 111.375 156.891 111.516 156.609 111.859C156.359 112.172 156.125 112.734 155.906 113.547C155.719 114.328 155.609 115.531 155.578 117.156C154.484 117.188 153.641 117.188 153.047 117.156C152.484 117.094 152.062 117.031 151.781 116.969C151.438 116.906 151.234 116.828 151.172 116.734C151.109 116.609 151.141 116.156 151.266 115.375C151.391 114.562 151.562 113.688 151.781 112.75C152.031 111.812 152.312 110.922 152.625 110.078C152.969 109.234 153.328 108.703 153.703 108.484C154.453 108.047 155.344 107.891 156.375 108.016C157.438 108.141 158.469 108.406 159.469 108.812C160.469 109.219 161.359 109.672 162.141 110.172C162.922 110.672 163.422 111.062 163.641 111.344ZM160.734 125.031C160.734 124.875 160.75 124.672 160.781 124.422C160.812 124.141 160.828 123.859 160.828 123.578C160.828 123.297 160.812 123.031 160.781 122.781C160.781 122.531 160.75 122.344 160.688 122.219C160.594 122.031 160.312 121.875 159.844 121.75C159.406 121.625 158.906 121.547 158.344 121.516C157.781 121.453 157.25 121.438 156.75 121.469C156.25 121.469 155.906 121.531 155.719 121.656C155.469 121.812 155.281 122.031 155.156 122.312C155.062 122.594 155 123.031 154.969 123.625C154.969 123.906 154.984 124.203 155.016 124.516C155.047 124.828 155.078 125.141 155.109 125.453C155.172 125.734 155.234 125.984 155.297 126.203C155.391 126.422 155.484 126.562 155.578 126.625C155.797 126.781 156.172 126.922 156.703 127.047C157.266 127.141 157.828 127.172 158.391 127.141C158.953 127.078 159.469 126.891 159.938 126.578C160.406 126.266 160.672 125.75 160.734 125.031ZM177.984 111.906C178.016 112 178.016 112.266 177.984 112.703C177.953 113.109 177.891 113.578 177.797 114.109C177.734 114.609 177.656 115.078 177.562 115.516C177.469 115.922 177.391 116.172 177.328 116.266C177.016 116.297 176.703 116.312 176.391 116.312C176.078 116.281 175.781 116.266 175.5 116.266H174.516C174.484 118.328 174.438 120.375 174.375 122.406C174.312 124.438 174.234 126.266 174.141 127.891C174.047 129.484 173.938 130.781 173.812 131.781C173.719 132.781 173.625 133.297 173.531 133.328C173.312 133.359 173.062 133.266 172.781 133.047C172.5 132.828 172.219 132.562 171.938 132.25C171.688 131.906 171.453 131.562 171.234 131.219C171.047 130.844 170.938 130.516 170.906 130.234C170.75 128.328 170.609 126.516 170.484 124.797C170.359 123.047 170.266 121.5 170.203 120.156C170.078 118.594 170 117.141 169.969 115.797C169.625 115.766 169.281 115.719 168.938 115.656C168.625 115.594 168.297 115.531 167.953 115.469C167.641 115.406 167.312 115.344 166.969 115.281C166.906 115.219 166.828 115.078 166.734 114.859C166.641 114.609 166.547 114.344 166.453 114.062C166.391 113.781 166.328 113.516 166.266 113.266C166.203 112.984 166.172 112.781 166.172 112.656C166.172 112.562 166.516 112.469 167.203 112.375C167.922 112.281 168.797 112.203 169.828 112.141C169.766 110.484 169.719 109.047 169.688 107.828C169.688 106.578 169.734 105.734 169.828 105.297C169.922 104.703 170.172 104.141 170.578 103.609C171.016 103.047 171.469 102.562 171.938 102.156C172.438 101.75 172.891 101.453 173.297 101.266C173.734 101.047 174.016 100.984 174.141 101.078C174.234 101.141 174.312 101.469 174.375 102.062C174.438 102.625 174.484 103.391 174.516 104.359C174.547 105.328 174.562 106.469 174.562 107.781C174.562 109.062 174.562 110.422 174.562 111.859C175.5 111.797 176.297 111.781 176.953 111.812C177.609 111.812 177.953 111.844 177.984 111.906ZM183.141 122.453C183.641 122.266 184.203 122.062 184.828 121.844C185.484 121.594 186.109 121.375 186.703 121.188C187.297 120.969 187.828 120.781 188.297 120.625C188.766 120.469 189.109 120.344 189.328 120.25C189.297 119.906 189.25 119.516 189.188 119.078C189.156 118.609 189.109 118.172 189.047 117.766C188.984 117.328 188.906 116.953 188.812 116.641C188.719 116.328 188.625 116.141 188.531 116.078C188.281 115.984 187.859 115.906 187.266 115.844C186.703 115.75 186.109 115.766 185.484 115.891C184.891 116.016 184.344 116.25 183.844 116.594C183.344 116.938 183.062 117.484 183 118.234C182.938 118.734 182.922 119.359 182.953 120.109C182.984 120.859 183.047 121.641 183.141 122.453ZM193.312 123.203C193.281 123.266 192.906 123.391 192.188 123.578C191.469 123.766 190.609 123.969 189.609 124.188C188.609 124.375 187.547 124.578 186.422 124.797C185.297 124.984 184.328 125.141 183.516 125.266C183.672 126.516 183.859 127.641 184.078 128.641C184.297 129.609 184.484 130.219 184.641 130.469C184.797 130.688 185 130.891 185.25 131.078C185.469 131.234 185.734 131.391 186.047 131.547C186.391 131.672 186.797 131.766 187.266 131.828C187.609 131.922 187.938 131.797 188.25 131.453C188.5 131.141 188.719 130.594 188.906 129.812C189.125 129.031 189.234 127.797 189.234 126.109C190.203 125.953 190.953 125.859 191.484 125.828C192.047 125.797 192.453 125.797 192.703 125.828C193.016 125.859 193.203 125.906 193.266 125.969C193.297 126.062 193.297 126.297 193.266 126.672C193.234 127.047 193.156 127.516 193.031 128.078C192.938 128.609 192.812 129.203 192.656 129.859C192.531 130.484 192.375 131.094 192.188 131.688C192 132.25 191.797 132.766 191.578 133.234C191.359 133.672 191.125 133.984 190.875 134.172C190.125 134.734 189.188 135.016 188.062 135.016C186.938 134.984 185.828 134.828 184.734 134.547C183.641 134.234 182.656 133.875 181.781 133.469C180.906 133.031 180.359 132.672 180.141 132.391C179.984 132.203 179.844 131.734 179.719 130.984C179.594 130.203 179.484 129.266 179.391 128.172C179.328 127.078 179.281 125.875 179.25 124.562C179.219 123.25 179.234 121.969 179.297 120.719C179.391 119.469 179.516 118.312 179.672 117.25C179.859 116.188 180.109 115.328 180.422 114.672C180.891 113.734 181.656 112.969 182.719 112.375C183.781 111.781 184.906 111.375 186.094 111.156C187.281 110.938 188.406 110.906 189.469 111.062C190.562 111.219 191.375 111.562 191.906 112.094C192.219 112.406 192.5 113.031 192.75 113.969C193 114.875 193.156 115.984 193.219 117.297C193.219 117.422 193.234 117.781 193.266 118.375C193.297 118.969 193.312 119.609 193.312 120.297C193.344 120.953 193.359 121.578 193.359 122.172C193.359 122.766 193.344 123.109 193.312 123.203ZM202.125 101.594C202.188 101.781 202.203 102.516 202.172 103.797C202.172 105.047 202.125 106.594 202.031 108.438C201.969 110.25 201.875 112.203 201.75 114.297C201.625 116.359 201.484 118.312 201.328 120.156C201.203 121.969 201.062 123.516 200.906 124.797C200.781 126.047 200.656 126.766 200.531 126.953C200.219 127.453 199.75 127.75 199.125 127.844C198.5 127.906 198.031 127.906 197.719 127.844C197.625 127.812 197.531 127.469 197.438 126.812C197.344 126.156 197.25 125.281 197.156 124.188C197.094 123.094 197.031 121.844 196.969 120.438C196.906 119.031 196.859 117.594 196.828 116.125C196.797 114.625 196.766 113.156 196.734 111.719C196.703 110.25 196.688 108.922 196.688 107.734C196.688 106.547 196.703 105.547 196.734 104.734C196.766 103.922 196.812 103.406 196.875 103.188C197 102.75 197.312 102.359 197.812 102.016C198.312 101.672 198.859 101.422 199.453 101.266C200.047 101.078 200.594 101.016 201.094 101.078C201.625 101.109 201.969 101.281 202.125 101.594ZM201.328 131.125C201.453 131.344 201.5 131.656 201.469 132.062C201.469 132.438 201.422 132.844 201.328 133.281C201.266 133.688 201.156 134.094 201 134.5C200.875 134.875 200.734 135.188 200.578 135.438C200.453 135.625 200.281 135.781 200.062 135.906C199.844 136.031 199.609 136.109 199.359 136.141C199.109 136.203 198.875 136.234 198.656 136.234C198.438 136.234 198.266 136.234 198.141 136.234C197.953 136.203 197.75 136.062 197.531 135.812C197.344 135.562 197.172 135.266 197.016 134.922C196.891 134.547 196.797 134.156 196.734 133.75C196.672 133.312 196.688 132.906 196.781 132.531C196.875 132.188 197.141 131.875 197.578 131.594C198.016 131.281 198.484 131.047 198.984 130.891C199.516 130.734 200 130.672 200.438 130.703C200.906 130.703 201.203 130.844 201.328 131.125Z" fill="#1ADB2D"/>
</svg>
