<svg width="407" height="149" viewBox="0 0 407 149" fill="none" xmlns="http://www.w3.org/2000/svg">
<path d="M180 126C180.5 129.667 182 136.5 180 144.5H193.5C194.167 143 195 140.5 195 135C195 132.2 194.167 128.333 193.5 126H180Z" fill="#0CB6FF"/>
<path d="M125 146C124.342 142.833 123.184 134.8 123.816 128H112.763C111.842 129 110 132.2 110 137C110 141.8 111.842 145 112.763 146H125Z" fill="#1ADB2D"/>
<path d="M256 144.5C255.833 141.333 259.2 133.2 256 126H271C272 127.167 273.5 131 274 135.5C274.546 140.417 273.5 143.5 273 144.5H256Z" fill="#1ADB2D"/>
<path fill-rule="evenodd" clip-rule="evenodd" d="M205 125C135.4 127 67.5 129.5 50.5 130H33C25.5 130 11.8269 120 7.5 107.5C3.9 97.1 3.16667 80.6667 3.5 71C3.16667 60.6667 3.9 31.7 7.5 24.5C12 15.5 18 10.5 25 8C30.6 6 45.5 5.16667 52 5L223.5 7.5L368.5 3C373.167 3 381.808 5.11808 389.5 11C398 17.5 400 25 401 27.5C402.167 30.6667 404 41.4 404 51V96C404 101.5 401.7 108.8 396.5 116C391.3 123.2 382.667 126.333 379 127C374.5 127.5 363.1 128.5 353.5 128.5C343.9 128.5 329.5 127 268 125H205ZM43 53V74.5C44 90 46.875 92 48.5 94C50.6667 96.6667 54.7 99.3 61.5 100.5C70 102 77.5 102.5 89.5 101.5C99.1 100.7 175.167 98.5 212 97.5H336C339.833 97.5 348.2 97.2 353 94C357.8 90.8 360.5 86.5 361.5 80.5L362.5 65V48.5C362.5 45.3334 360.7 37.1 353.5 33.5C348 30.75 344 30.2091 336 30.5C299.333 31.8333 222 33.5 212 33.5C199.5 33.5 124 32.5 118 32.5C113.2 32.5 80 32.5 62.5 34.5C59 35.1667 51.1 37.5 47.5 41.5C43.9 45.5 43 50.8334 43 53Z" fill="#D02337"/>
<path d="M43 74.5V53C43 50.8334 43.9 45.5 47.5 41.5C51.1 37.5 59 35.1667 62.5 34.5C80 32.5 113.2 32.5 118 32.5C124 32.5 199.5 33.5 212 33.5C222 33.5 299.333 31.8333 336 30.5C344 30.2091 348 30.75 353.5 33.5C360.7 37.1 362.5 45.3334 362.5 48.5V65L361.5 80.5C360.5 86.5 357.8 90.8 353 94C348.2 97.2 339.833 97.5 336 97.5H212C175.167 98.5 99.1 100.7 89.5 101.5C77.5 102.5 70 102 61.5 100.5C54.7 99.3 50.6667 96.6667 48.5 94C46.875 92 44 90 43 74.5Z" fill="#001586"/>
<path d="M180 126C180.5 129.667 182 136.5 180 144.5H193.5C194.167 143 195 140.5 195 135C195 132.2 194.167 128.333 193.5 126H180Z" stroke="black" stroke-width="5"/>
<path d="M125 146C124.342 142.833 123.184 134.8 123.816 128H112.763C111.842 129 110 132.2 110 137C110 141.8 111.842 145 112.763 146H125Z" stroke="black" stroke-width="5"/>
<path d="M256 144.5C255.833 141.333 259.2 133.2 256 126H271C272 127.167 273.5 131 274 135.5C274.546 140.417 273.5 143.5 273 144.5H256Z" stroke="black" stroke-width="5"/>
<path fill-rule="evenodd" clip-rule="evenodd" d="M205 125C135.4 127 67.5 129.5 50.5 130H33C25.5 130 11.8269 120 7.5 107.5C3.9 97.1 3.16667 80.6667 3.5 71C3.16667 60.6667 3.9 31.7 7.5 24.5C12 15.5 18 10.5 25 8C30.6 6 45.5 5.16667 52 5L223.5 7.5L368.5 3C373.167 3 381.808 5.11808 389.5 11C398 17.5 400 25 401 27.5C402.167 30.6667 404 41.4 404 51V96C404 101.5 401.7 108.8 396.5 116C391.3 123.2 382.667 126.333 379 127C374.5 127.5 363.1 128.5 353.5 128.5C343.9 128.5 329.5 127 268 125H205ZM43 53V74.5C44 90 46.875 92 48.5 94C50.6667 96.6667 54.7 99.3 61.5 100.5C70 102 77.5 102.5 89.5 101.5C99.1 100.7 175.167 98.5 212 97.5H336C339.833 97.5 348.2 97.2 353 94C357.8 90.8 360.5 86.5 361.5 80.5L362.5 65V48.5C362.5 45.3334 360.7 37.1 353.5 33.5C348 30.75 344 30.2091 336 30.5C299.333 31.8333 222 33.5 212 33.5C199.5 33.5 124 32.5 118 32.5C113.2 32.5 80 32.5 62.5 34.5C59 35.1667 51.1 37.5 47.5 41.5C43.9 45.5 43 50.8334 43 53Z" stroke="black" stroke-width="5"/>
<path d="M43 74.5V53C43 50.8334 43.9 45.5 47.5 41.5C51.1 37.5 59 35.1667 62.5 34.5C80 32.5 113.2 32.5 118 32.5C124 32.5 199.5 33.5 212 33.5C222 33.5 299.333 31.8333 336 30.5C344 30.2091 348 30.75 353.5 33.5C360.7 37.1 362.5 45.3334 362.5 48.5V65L361.5 80.5C360.5 86.5 357.8 90.8 353 94C348.2 97.2 339.833 97.5 336 97.5H212C175.167 98.5 99.1 100.7 89.5 101.5C77.5 102.5 70 102 61.5 100.5C54.7 99.3 50.6667 96.6667 48.5 94C46.875 92 44 90 43 74.5Z" stroke="black" stroke-width="5"/>
<path d="M17.5 36.5C17 39.8333 15.8 51.6 15 72C14.5 77.6667 15.3135 91.8807 16 96C16.5 99 18 103 20 106.5C21.8892 109.806 28 116.5 33 117.5C38 118.5 46.5 118.5 49.5 118.5C52.5 118.5 133 115.5 138 115.5C142 115.5 229.333 114.5 272.5 114L362.5 115.5C367.5 115.667 378.9 114 384.5 106C390.1 98 391.5 88 391.5 84C392 70.6667 392.2 42.5 389 36.5L388.784 36.0947C384.962 28.9258 383.881 26.8996 377.5 21.5C372.3 17.1 357 16.6667 350 17L205.5 20.5C149 20.5 57.3 18 54.5 18C51 18 33.5 19 26 25C20 29.8 17.8333 34.6667 17.5 36.5Z" stroke="black" stroke-width="2"/>
<path d="M50 74.5C49.6 61.7 50.5 53.8334 51 51.5C51.1667 49.8334 54.7238 43.9367 63 41C78.5 35.5 186 39 186 39C186 39 160 41 137.5 42.5C115 44 95 47 88 48.5C81 50 72.5 53 66 56C55.0733 61.0431 53.6667 69 50 74.5Z" fill="#4D1BDC" stroke="#4D1BDC" stroke-width="2"/>
<path d="M310 87C299.5 88.5 249.5 90 247.5 91.5C276 91.8333 334.2 92.3 339 91.5C345 90.5 351.5 88.5 354 79C355.627 72.8192 355.82 63.1332 355.656 56.7728C355.603 57.6995 355.541 58.78 355.5 60C355.345 64.6072 353 68 349.5 72.5C345.235 77.983 337 81 333.5 82C330.275 82.9214 320.5 85.5 310 87Z" fill="#2F006B"/>
<path d="M355.656 56.7728C355.82 63.1332 355.627 72.8192 354 79C351.5 88.5 345 90.5 339 91.5C334.2 92.3 276 91.8333 247.5 91.5C249.5 90 299.5 88.5 310 87C320.5 85.5 330.275 82.9214 333.5 82C337 81 345.235 77.983 349.5 72.5C353 68 355.345 64.6072 355.5 60C355.541 58.78 355.603 57.6995 355.656 56.7728ZM355.656 56.7728C355.619 55.3123 355.562 54.0271 355.5 53C355.847 53.3475 355.777 54.661 355.656 56.7728Z" stroke="#2F006B" stroke-width="2"/>
</svg>
