<svg width="410" height="149" viewBox="0 0 410 149" fill="none" xmlns="http://www.w3.org/2000/svg">
<path fill-rule="evenodd" clip-rule="evenodd" d="M3 93.5C3 63.5 4 46.5 6 37.5C12.2101 9.55443 43.5628 9.71173 66.5 7.99999C100 5.49999 146.417 3.93037 191 3.49999C249.293 2.93726 305 3 332.5 5.00001C364 7.29092 383 8.49999 389 11.5C395 14.5 401.5 20 404 31.5C406.5 43 407 57.5 407 79.5C407 101.5 405 114.5 400 122.5C395.686 129.402 389.5 136.5 368.5 140C347.5 143.5 288.5 144.5 266 144.5C235.5 144.5 165.5 146.899 111 144.5C84.5 143.333 34.8682 139.872 27 136.5C20 133.5 15.8333 129.5 10.5 123.5C6.5 119 3 109.5 3 93.5ZM79.5 114C102 114 139 115.1 187 115.5C200.333 115 230.5 115.5 272 114C307.977 112.7 329.333 111.333 335.5 110C341.167 108.667 353.3 102.9 356.5 90.5C359.7 78.1 359.167 60 358.5 52.5C358 49.1667 355.8 41.7 351 38.5C345 34.5 336.99 33.7441 334 33.5C309.5 31.5 287.5 29.5 265.5 29.5H183C168 29.8333 132 30.7 108 31.5C84 32.3 59 34.8333 49.5 36C46.1667 36.8333 38.2 40 33 46C26.5 53.5 27 66.5 27 78C27 89.5 29 97 29.5 99C30 101 31.5 105.5 39.5 110C45.9 113.6 66 114 79.5 114Z" fill="#D02337"/>
<path d="M187 115.5C139 115.1 102 114 79.5 114C66 114 45.9 113.6 39.5 110C31.5 105.5 30 101 29.5 99C29 97 27 89.5 27 78C27 66.5 26.5 53.5 33 46C38.2 40 46.1667 36.8333 49.5 36C59 34.8333 84 32.3 108 31.5C132 30.7 168 29.8333 183 29.5H265.5C287.5 29.5 309.5 31.5 334 33.5C336.99 33.7441 345 34.5 351 38.5C355.8 41.7 358 49.1667 358.5 52.5C359.167 60 359.7 78.1 356.5 90.5C353.3 102.9 341.167 108.667 335.5 110C329.333 111.333 307.977 112.7 272 114C230.5 115.5 200.333 115 187 115.5Z" fill="#57099B"/>
<path d="M6 37.5L8.44047 38.0423L6 37.5ZM66.5 7.99999L66.3139 5.50693L66.5 7.99999ZM332.5 5.00001L332.681 2.50659L332.5 5.00001ZM400 122.5L402.12 123.825L400 122.5ZM111 144.5L110.89 146.998L111 144.5ZM27 136.5L26.0152 138.798H26.0152L27 136.5ZM10.5 123.5L8.63148 125.161L10.5 123.5ZM191 3.49999L191.024 5.99988L191 3.49999ZM187 115.5L186.979 118L187.036 118L187.094 117.998L187 115.5ZM39.5 110L38.2743 112.179H38.2743L39.5 110ZM33 46L31.1108 44.3627L33 46ZM49.5 36L49.1953 33.5186L49.0427 33.5374L48.8937 33.5747L49.5 36ZM183 29.5V27H182.972L182.944 27.0006L183 29.5ZM334 33.5L334.203 31.0083L334 33.5ZM351 38.5L349.613 40.5801V40.5801L351 38.5ZM358.5 52.5L360.99 52.2787L360.984 52.2036L360.972 52.1292L358.5 52.5ZM335.5 110L336.028 112.444L336.051 112.439L336.073 112.434L335.5 110ZM272 114L271.91 111.502L272 114ZM5.5 93.5C5.5 63.4539 6.50986 46.7301 8.44047 38.0423L3.55953 36.9577C1.49014 46.2699 0.5 63.5461 0.5 93.5H5.5ZM8.44047 38.0423C11.2953 25.1957 19.8175 18.7824 30.7381 15.2937C41.8584 11.7413 55.0179 11.3638 66.6861 10.4931L66.3139 5.50693C55.0449 6.3479 41.0595 6.74761 29.2166 10.5309C17.174 14.3779 6.91484 21.8587 3.55953 36.9577L8.44047 38.0423ZM332.319 7.49342C348.094 8.6407 360.668 9.5123 370.059 10.4712C374.752 10.9504 378.598 11.4465 381.62 12C384.693 12.5629 386.714 13.152 387.882 13.7361L390.118 9.26392C388.286 8.34796 385.682 7.66092 382.521 7.08182C379.308 6.49327 375.31 5.98141 370.566 5.49702C361.082 4.52862 348.406 3.65023 332.681 2.50659L332.319 7.49342ZM387.882 13.7361C393.342 16.4662 399.248 21.4087 401.557 32.0311L406.443 30.9689C403.752 18.5913 396.658 12.5337 390.118 9.26392L387.882 13.7361ZM401.557 32.0311C403.991 43.2291 404.5 57.4666 404.5 79.5H409.5C409.5 57.5334 409.009 42.7709 406.443 30.9689L401.557 32.0311ZM404.5 79.5C404.5 101.533 402.458 113.851 397.88 121.175L402.12 123.825C407.542 115.149 409.5 101.467 409.5 79.5H404.5ZM397.88 121.175C395.826 124.462 393.432 127.631 389.141 130.432C384.808 133.26 378.371 135.82 368.089 137.534L368.911 142.466C379.629 140.68 386.785 137.941 391.874 134.619C397.004 131.271 399.86 127.44 402.12 123.825L397.88 121.175ZM368.089 137.534C357.779 139.252 337.945 140.375 317.727 141.064C297.57 141.75 277.224 142 266 142V147C277.276 147 297.68 146.75 317.898 146.061C338.055 145.375 358.221 144.248 368.911 142.466L368.089 137.534ZM266 142C235.347 142 165.545 144.399 111.11 142.002L110.89 146.998C165.455 149.4 235.653 147 266 147V142ZM111.11 142.002C97.8904 141.42 78.8923 140.265 62.2267 138.836C53.8917 138.121 46.1648 137.34 40.0458 136.53C36.9847 136.125 34.3514 135.716 32.2579 135.31C30.1086 134.893 28.7023 134.51 27.9848 134.202L26.0152 138.798C27.2647 139.333 29.1306 139.796 31.3051 140.218C33.5354 140.651 36.2775 141.075 39.3899 141.487C45.6179 142.311 53.4305 143.1 61.7994 143.818C78.5418 145.254 97.6096 146.413 110.89 146.998L111.11 142.002ZM27.9848 134.202C21.4942 131.42 17.6231 127.751 12.3685 121.839L8.63148 125.161C14.0435 131.249 18.5058 135.579 26.0152 138.798L27.9848 134.202ZM12.3685 121.839C8.96611 118.011 5.5 109.254 5.5 93.5H0.5C0.5 109.746 4.03389 119.989 8.63148 125.161L12.3685 121.839ZM66.6861 10.4931C100.113 7.99855 146.471 6.42997 191.024 5.99988L190.976 1.00011C146.363 1.43078 99.8875 3.00144 66.3139 5.50693L66.6861 10.4931ZM191.024 5.99988C249.35 5.43683 304.943 5.50246 332.319 7.49342L332.681 2.50659C305.057 0.497548 249.236 0.43769 190.976 1.00011L191.024 5.99988ZM187.021 113C139.136 112.601 101.977 111.5 79.5 111.5V116.5C102.023 116.5 138.864 117.599 186.979 118L187.021 113ZM79.5 111.5C72.7625 111.5 64.4375 111.4 57.02 110.857C53.3098 110.585 49.8723 110.206 46.9981 109.684C44.062 109.151 41.9472 108.508 40.7257 107.821L38.2743 112.179C40.2528 113.292 43.0505 114.049 46.105 114.604C49.2214 115.169 52.8527 115.565 56.655 115.843C64.2625 116.4 72.7375 116.5 79.5 116.5V111.5ZM40.7257 107.821C36.9815 105.715 34.8915 103.685 33.6952 102.073C32.5131 100.48 32.124 99.1882 31.9254 98.3937L27.0746 99.6063C27.376 100.812 27.9869 102.77 29.6798 105.052C31.3585 107.315 34.0185 109.785 38.2743 112.179L40.7257 107.821ZM31.9254 98.3937C31.4433 96.4654 29.5 89.1969 29.5 78H24.5C24.5 89.8031 26.5567 97.5346 27.0746 99.6063L31.9254 98.3937ZM29.5 78C29.5 72.1611 29.38 66.2362 30.044 60.8033C30.7084 55.3677 32.1202 50.8324 34.8892 47.6373L31.1108 44.3627C27.3798 48.6676 25.7916 54.3823 25.081 60.1967C24.37 66.0138 24.5 72.3389 24.5 78H29.5ZM34.8892 47.6373C39.6338 42.1628 47.0602 39.1869 50.1063 38.4254L48.8937 33.5747C45.2731 34.4798 36.7662 37.8372 31.1108 44.3627L34.8892 47.6373ZM49.8047 38.4814C59.2535 37.321 84.1768 34.7955 108.083 33.9986L107.917 29.0014C83.8232 29.8045 58.7465 32.3457 49.1953 33.5186L49.8047 38.4814ZM108.083 33.9986C132.069 33.1991 168.057 32.3327 183.056 31.9994L182.944 27.0006C167.943 27.334 131.931 28.2009 107.917 29.0014L108.083 33.9986ZM183 32H265.5V27H183V32ZM265.5 32C287.374 32 309.253 33.9882 333.797 35.9917L334.203 31.0083C309.747 29.0118 287.626 27 265.5 27V32ZM333.797 35.9917C336.813 36.238 344.212 36.979 349.613 40.5801L352.387 36.4199C345.788 32.021 337.167 31.2502 334.203 31.0083L333.797 35.9917ZM349.613 40.5801C351.453 41.8069 352.958 43.9875 354.084 46.4794C355.194 48.9358 355.809 51.4119 356.028 52.8709L360.972 52.1292C360.691 50.2548 359.956 47.3309 358.641 44.4206C357.342 41.5459 355.347 38.3931 352.387 36.4199L349.613 40.5801ZM356.01 52.7214C356.671 60.1558 357.169 77.9044 354.079 89.8753L358.921 91.1247C362.231 78.2956 361.663 59.8442 360.99 52.2787L356.01 52.7214ZM354.079 89.8753C352.655 95.3954 349.232 99.4968 345.409 102.412C341.564 105.344 337.44 106.975 334.927 107.566L336.073 112.434C339.227 111.691 344.003 109.773 348.441 106.388C352.901 102.987 357.145 98.0047 358.921 91.1247L354.079 89.8753ZM334.972 107.556C332.107 108.176 325.425 108.844 314.771 109.517C304.196 110.186 289.888 110.852 271.91 111.502L272.09 116.498C290.089 115.848 304.447 115.18 315.086 114.507C325.647 113.84 332.726 113.157 336.028 112.444L334.972 107.556ZM271.91 111.502C251.192 112.25 233.3 112.5 218.916 112.625C204.567 112.75 193.621 112.75 186.906 113.002L187.094 117.998C193.712 117.75 204.516 117.75 218.959 117.625C233.367 117.5 251.308 117.25 272.09 116.498L271.91 111.502Z" fill="black"/>
<path d="M40 125.5C43.1667 126 56.5 127.3 84.5 128.5C123.5 129.333 160.002 131.418 203.5 131C255.5 130.5 315 128 345 126.5C363.5 125 378.658 123.615 385.5 107C389 98.5 389.583 94.5 390 74.5C390.5 50.5 391.5 48.5 387.5 39C385.831 35.0359 379.5 28 370.5 26C361.5 24 275.5 19.5 266.5 19.5H154L59.5 24C52.1667 24.3333 35.7 26.6 28.5 33C21.3 39.4 18.5 47.3333 18 50.5C17.5 54.5 16.5 65.7 16.5 78.5C16.5 91.3 16 94.5 18.5 107.5C20.5 114 22 115.8 26 119C30 122.2 37 124.667 40 125.5Z" stroke="black" stroke-width="2"/>
<path d="M238 36.5C236.5 37 162.167 36.1667 147.5 36.5L96 38C82.3333 38.1667 53.2 39.4 46 43C38.8 46.6 36.3333 52.8334 36 55.5V73.9162C37.5 71.5 39.2 63.3 46 58.5C54.5 52.5 79.5 48.5 91.5 46.5C103.5 44.5 135.5 42 140.5 41.5C144.5 41.1 239.5 36 238 36.5Z" fill="#9F66D1" stroke="#9F66D1" stroke-width="2"/>
<path d="M186 109.5C231.5 106.5 244.5 105.5 254.5 104.5C264.5 103.5 287.437 100.652 292 100C299 99 321.5 94 325 93C328.5 92 336.5 90 339.5 87.5C342.5 85 350.997 75.0439 351.5 66.5C352 58 351.5 81 351 84.5C350.571 87.5 350.5 96.5 343.5 100.5C336.5 104.5 328 105 321.5 105.5C316.3 105.9 229 108.333 186 109.5Z" fill="#35087A" stroke="#35087A" stroke-width="2"/>
</svg>
