<svg width="407" height="149" viewBox="0 0 407 149" fill="none" xmlns="http://www.w3.org/2000/svg">
<path d="M180 126C180.5 129.667 182 136.5 180 144.5H193.5C194.167 143 195 140.5 195 135C195 132.2 194.167 128.333 193.5 126H180Z" fill="#0CB6FF"/>
<path d="M125 146C124.342 142.833 123.184 134.8 123.816 128H112.763C111.842 129 110 132.2 110 137C110 141.8 111.842 145 112.763 146H125Z" fill="#1ADB2D"/>
<path d="M256 144.5C255.833 141.333 259.2 133.2 256 126H271C272 127.167 273.5 131 274 135.5C274.546 140.417 273.5 143.5 273 144.5H256Z" fill="#1ADB2D"/>
<path fill-rule="evenodd" clip-rule="evenodd" d="M205 125C135.4 127 67.5 129.5 50.5 130H33C25.5 130 11.8269 120 7.5 107.5C3.9 97.1 3.16667 80.6667 3.5 71C3.16667 60.6667 3.9 31.7 7.5 24.5C12 15.5 18 10.5 25 8C30.6 6 45.5 5.16667 52 5L223.5 7.5L368.5 3C373.167 3 381.808 5.11808 389.5 11C398 17.5 400 25 401 27.5C402.167 30.6667 404 41.4 404 51V96C404 101.5 401.7 108.8 396.5 116C391.3 123.2 382.667 126.333 379 127C374.5 127.5 363.1 128.5 353.5 128.5C343.9 128.5 329.5 127 268 125H205ZM43 53V74.5C44 90 46.875 92 48.5 94C50.6667 96.6667 54.7 99.3 61.5 100.5C70 102 77.5 102.5 89.5 101.5C99.1 100.7 175.167 98.5 212 97.5H336C339.833 97.5 348.2 97.2 353 94C357.8 90.8 360.5 86.5 361.5 80.5L362.5 65V48.5C362.5 45.3334 360.7 37.1 353.5 33.5C348 30.75 344 30.2091 336 30.5C299.333 31.8333 222 33.5 212 33.5C199.5 33.5 124 32.5 118 32.5C113.2 32.5 80 32.5 62.5 34.5C59 35.1667 51.1 37.5 47.5 41.5C43.9 45.5 43 50.8334 43 53Z" fill="#D02337"/>
<path d="M43 74.5V53C43 50.8334 43.9 45.5 47.5 41.5C51.1 37.5 59 35.1667 62.5 34.5C80 32.5 113.2 32.5 118 32.5C124 32.5 199.5 33.5 212 33.5C222 33.5 299.333 31.8333 336 30.5C344 30.2091 348 30.75 353.5 33.5C360.7 37.1 362.5 45.3334 362.5 48.5V65L361.5 80.5C360.5 86.5 357.8 90.8 353 94C348.2 97.2 339.833 97.5 336 97.5H212C175.167 98.5 99.1 100.7 89.5 101.5C77.5 102.5 70 102 61.5 100.5C54.7 99.3 50.6667 96.6667 48.5 94C46.875 92 44 90 43 74.5Z" fill="#57099B"/>
<path d="M180 144.5L177.575 143.894L176.798 147H180V144.5ZM180 126V123.5H177.136L177.523 126.338L180 126ZM193.5 126L195.904 125.313L195.386 123.5H193.5V126ZM193.5 144.5V147H195.125L195.785 145.515L193.5 144.5ZM123.816 128L126.305 128.231L126.559 125.5H123.816V128ZM125 146V148.5H128.073L127.448 145.491L125 146ZM112.763 146L110.924 147.694L111.667 148.5H112.763V146ZM112.763 128V125.5H111.667L110.924 126.306L112.763 128ZM256 126V123.5H252.153L253.715 127.015L256 126ZM256 144.5L253.503 144.631L253.628 147H256V144.5ZM273 144.5V147H274.545L275.236 145.618L273 144.5ZM274 135.5L276.485 135.224L276.485 135.224L274 135.5ZM271 126L272.898 124.373L272.15 123.5H271V126ZM205 125V122.5H204.964L204.928 122.501L205 125ZM50.5 130V132.5H50.5368L50.5735 132.499L50.5 130ZM7.5 107.5L5.13753 108.318L5.13753 108.318L7.5 107.5ZM3.5 71L5.99852 71.0862L6.00139 71.0028L5.9987 70.9194L3.5 71ZM7.5 24.5L5.26393 23.382L7.5 24.5ZM25 8L24.1592 5.64565L25 8ZM52 5L52.0364 2.50027L51.9862 2.49953L51.9359 2.50082L52 5ZM223.5 7.5L223.464 9.99973L223.521 10.0006L223.578 9.9988L223.5 7.5ZM368.5 3V0.5H368.461L368.422 0.501203L368.5 3ZM389.5 11L391.019 9.01411L391.019 9.01411L389.5 11ZM401 27.5L403.346 26.6357L403.334 26.6035L403.321 26.5715L401 27.5ZM379 127L379.276 129.485L379.362 129.475L379.447 129.46L379 127ZM268 125L268.081 122.501L268.041 122.5H268V125ZM43 74.5H40.5V74.5806L40.5052 74.661L43 74.5ZM48.5 94L46.5597 95.5765L46.5597 95.5765L48.5 94ZM61.5 100.5L61.9345 98.038L61.9345 98.038L61.5 100.5ZM89.5 101.5L89.7076 103.991L89.7076 103.991L89.5 101.5ZM212 97.5V95H211.966L211.932 95.0009L212 97.5ZM361.5 80.5L363.966 80.911L363.987 80.7867L363.995 80.661L361.5 80.5ZM362.5 65L364.995 65.161L365 65.0806V65H362.5ZM353.5 33.5L354.618 31.2639L354.618 31.2639L353.5 33.5ZM336 30.5L335.909 28.0017L335.909 28.0017L336 30.5ZM62.5 34.5L62.2161 32.0162L62.1237 32.0268L62.0322 32.0442L62.5 34.5ZM182.425 145.106C184.568 136.534 182.953 129.149 182.477 125.662L177.523 126.338C178.047 130.185 179.432 136.466 177.575 143.894L182.425 145.106ZM180 128.5H193.5V123.5H180V128.5ZM191.096 126.687C191.742 128.946 192.5 132.548 192.5 135H197.5C197.5 131.852 196.592 127.721 195.904 125.313L191.096 126.687ZM192.5 135C192.5 140.211 191.717 142.355 191.215 143.485L195.785 145.515C196.616 143.645 197.5 140.789 197.5 135H192.5ZM193.5 142H180V147H193.5V142ZM121.327 127.769C120.663 134.916 121.869 143.222 122.552 146.509L127.448 145.491C126.815 142.445 125.706 134.684 126.305 128.231L121.327 127.769ZM125 143.5H112.763V148.5H125V143.5ZM114.602 144.306C114.133 143.797 112.5 141.213 112.5 137H107.5C107.5 142.387 109.551 146.203 110.924 147.694L114.602 144.306ZM112.5 137C112.5 132.787 114.133 130.203 114.602 129.694L110.924 126.306C109.551 127.797 107.5 131.613 107.5 137H112.5ZM112.763 130.5H123.816V125.5H112.763V130.5ZM253.715 127.015C255.043 130.002 255.056 133.296 254.657 136.449C254.458 138.025 254.171 139.471 253.921 140.835C253.693 142.077 253.443 143.488 253.503 144.631L258.497 144.369C258.473 143.928 258.582 143.136 258.839 141.737C259.073 140.46 259.396 138.829 259.618 137.076C260.061 133.57 260.157 129.198 258.285 124.985L253.715 127.015ZM256 147H273V142H256V147ZM275.236 145.618C275.965 144.16 277.081 140.59 276.485 135.224L271.515 135.776C272.012 140.245 271.035 142.84 270.764 143.382L275.236 145.618ZM276.485 135.224C276.214 132.788 275.673 130.529 275.056 128.701C274.472 126.97 273.725 125.337 272.898 124.373L269.102 127.627C269.275 127.83 269.778 128.697 270.319 130.299C270.827 131.804 271.286 133.712 271.515 135.776L276.485 135.224ZM271 123.5H256V128.5H271V123.5ZM204.928 122.501C135.419 124.498 67.3052 127.005 50.4265 127.501L50.5735 132.499C67.6948 131.995 135.381 129.502 205.072 127.499L204.928 122.501ZM50.5 127.5H33V132.5H50.5V127.5ZM33 127.5C31.6296 127.5 29.7467 127.027 27.5256 125.981C25.3368 124.949 22.9654 123.429 20.6564 121.513C16.0141 117.662 11.8399 112.395 9.86246 106.682L5.13753 108.318C7.48706 115.105 12.3128 121.088 17.4638 125.362C20.0515 127.508 22.775 129.269 25.3944 130.504C27.9817 131.723 30.6204 132.5 33 132.5V127.5ZM9.86246 106.682C6.41891 96.7342 5.6676 80.6826 5.99852 71.0862L1.00149 70.9138C0.66573 80.6507 1.38109 97.4658 5.13753 108.318L9.86246 106.682ZM5.9987 70.9194C5.8349 65.8416 5.93272 56.0964 6.5201 46.7315C6.81367 42.0509 7.22702 37.5075 7.78297 33.7124C8.35367 29.8166 9.03463 27.0209 9.73607 25.618L5.26393 23.382C4.16537 25.5791 3.40467 29.1042 2.83578 32.9876C2.25214 36.9717 1.828 41.6657 1.5299 46.4185C0.933943 55.9203 0.831766 65.825 1.0013 71.0806L5.9987 70.9194ZM9.73607 25.618C13.9738 17.1425 19.5006 12.6187 25.8408 10.3544L24.1592 5.64565C16.4994 8.38128 10.0262 13.8575 5.26393 23.382L9.73607 25.618ZM25.8408 10.3544C28.2981 9.47677 33.1134 8.78487 38.3903 8.3021C43.5635 7.82882 48.8579 7.58139 52.0641 7.49918L51.9359 2.50082C48.6422 2.58528 43.2365 2.83785 37.9347 3.3229C32.7366 3.79846 27.3019 4.52323 24.1592 5.64565L25.8408 10.3544ZM51.9636 7.49973L223.464 9.99973L223.536 5.00027L52.0364 2.50027L51.9636 7.49973ZM223.578 9.9988L368.578 5.4988L368.422 0.501203L223.422 5.0012L223.578 9.9988ZM368.5 5.5C372.609 5.5 380.719 7.43201 387.981 12.9859L391.019 9.01411C382.898 2.80416 373.724 0.5 368.5 0.5V5.5ZM387.981 12.9859C395.842 18.997 397.627 25.8 398.679 28.4285L403.321 26.5715C402.373 24.2 400.158 16.003 391.019 9.01411L387.981 12.9859ZM398.654 28.3643C399.139 29.6791 399.861 32.9265 400.462 37.187C401.054 41.3811 401.5 46.3443 401.5 51H406.5C406.5 46.0557 406.029 40.8523 405.413 36.488C404.806 32.1901 404.028 28.4875 403.346 26.6357L398.654 28.3643ZM401.5 51V96H406.5V51H401.5ZM401.5 96C401.5 100.868 399.434 107.667 394.473 114.536L398.527 117.464C403.966 109.933 406.5 102.132 406.5 96H401.5ZM394.473 114.536C389.78 121.034 381.84 123.943 378.553 124.54L379.447 129.46C383.494 128.724 392.82 125.366 398.527 117.464L394.473 114.536ZM378.724 124.515C374.27 125.01 362.971 126 353.5 126V131C363.229 131 374.73 129.99 379.276 129.485L378.724 124.515ZM353.5 126C348.783 126 342.888 125.631 330.337 125.003C317.836 124.377 298.847 123.502 268.081 122.501L267.919 127.499C298.653 128.498 317.614 129.373 330.088 129.997C342.512 130.619 348.617 131 353.5 131V126ZM268 122.5H205V127.5H268V122.5ZM40.5 53V74.5H45.5V53H40.5ZM40.5052 74.661C41.0123 82.5219 42.0051 87.1881 43.1861 90.2199C44.4099 93.3616 45.8596 94.7148 46.5597 95.5765L50.4403 92.4235C49.5154 91.2852 48.7151 90.6384 47.8451 88.4051C46.9324 86.0619 45.9877 81.9781 45.4948 74.3391L40.5052 74.661ZM46.5597 95.5765C49.1892 98.8127 53.8187 101.683 61.0655 102.962L61.9345 98.038C55.5813 96.9169 52.1442 94.5206 50.4403 92.4235L46.5597 95.5765ZM61.0655 102.962C69.789 104.501 77.5052 105.008 89.7076 103.991L89.2924 99.0087C77.4948 99.9918 70.2111 99.4986 61.9345 98.038L61.0655 102.962ZM89.7076 103.991C99.2156 103.199 175.167 101.001 212.068 99.9991L211.932 95.0009C175.166 95.9991 98.9844 98.201 89.2924 99.0087L89.7076 103.991ZM212 100H336V95H212V100ZM336 100C337.971 100 341.161 99.9238 344.508 99.4224C347.798 98.9296 351.526 97.9871 354.387 96.0801L351.613 91.9199C349.674 93.2129 346.819 94.0204 343.767 94.4776C340.773 94.9262 337.862 95 336 95V100ZM354.387 96.0801C359.798 92.4723 362.86 87.5477 363.966 80.911L359.034 80.089C358.14 85.4523 355.801 89.1277 351.613 91.9199L354.387 96.0801ZM363.995 80.661L364.995 65.161L360.005 64.839L359.005 80.339L363.995 80.661ZM365 65V48.5H360V65H365ZM365 48.5C365 46.5533 364.471 43.3436 362.967 40.1087C361.448 36.8416 358.854 33.3819 354.618 31.2639L352.382 35.7361C355.346 37.2182 357.252 39.6751 358.433 42.2164C359.629 44.7898 360 47.2801 360 48.5H365ZM354.618 31.2639C348.604 28.2567 344.137 27.7025 335.909 28.0017L336.091 32.9984C343.863 32.7158 347.396 33.2433 352.382 35.7361L354.618 31.2639ZM335.909 28.0017C299.254 29.3346 221.955 31 212 31V36C222.045 36 299.413 34.3321 336.091 32.9984L335.909 28.0017ZM212 31C205.769 31 183.791 30.7503 162.592 30.5002C141.423 30.2504 121.02 30 118 30V35C120.98 35 141.327 35.2496 162.533 35.4998C183.709 35.7497 205.731 36 212 36V31ZM118 30C113.254 30 79.8899 29.9963 62.2161 32.0162L62.7839 36.9838C80.1101 35.0037 113.146 35 118 35V30ZM62.0322 32.0442C60.1346 32.4056 57.1237 33.2001 54.0939 34.4349C51.121 35.6466 47.8235 37.4035 45.6418 39.8276L49.3582 43.1724C50.7765 41.5965 53.229 40.1868 55.9811 39.0651C58.6763 37.9666 61.3654 37.2611 62.9678 36.9559L62.0322 32.0442ZM45.6418 39.8276C41.5047 44.4243 40.5 50.4301 40.5 53H45.5C45.5 51.2366 46.2953 46.5757 49.3582 43.1724L45.6418 39.8276Z" fill="black"/>
<path d="M17.5 36.5C17 39.8333 15.8 51.6 15 72C14.5 77.6667 15.3135 91.8807 16 96C16.5 99 18 103 20 106.5C21.8892 109.806 28 116.5 33 117.5C38 118.5 46.5 118.5 49.5 118.5C52.5 118.5 133 115.5 138 115.5C142 115.5 229.333 114.5 272.5 114L362.5 115.5C367.5 115.667 378.9 114 384.5 106C390.1 98 391.5 88 391.5 84C392 70.6667 392.2 42.5 389 36.5L388.784 36.0947C384.962 28.9258 383.881 26.8996 377.5 21.5C372.3 17.1 357 16.6667 350 17L205.5 20.5C149 20.5 57.3 18 54.5 18C51 18 33.5 19 26 25C20 29.8 17.8333 34.6667 17.5 36.5Z" stroke="black" stroke-width="2"/>
<path d="M50 74.5C49.6 61.7 50.5 53.8334 51 51.5C51.1667 49.8334 54.7238 43.9367 63 41C78.5 35.5 186 39 186 39C186 39 160 41 137.5 42.5C115 44 95 47 88 48.5C81 50 72.5 53 66 56C55.0733 61.0431 53.6667 69 50 74.5Z" fill="#9F66D1" stroke="#9F66D1" stroke-width="2"/>
<path d="M310 87C299.5 88.5 249.5 90 247.5 91.5C276 91.8333 334.2 92.3 339 91.5C345 90.5 351.5 88.5 354 79C355.627 72.8192 355.82 63.1332 355.656 56.7728C355.603 57.6995 355.541 58.78 355.5 60C355.345 64.6072 353 68 349.5 72.5C345.235 77.983 337 81 333.5 82C330.275 82.9214 320.5 85.5 310 87Z" fill="#35087A"/>
<path d="M355.656 56.7728C355.82 63.1332 355.627 72.8192 354 79C351.5 88.5 345 90.5 339 91.5C334.2 92.3 276 91.8333 247.5 91.5C249.5 90 299.5 88.5 310 87C320.5 85.5 330.275 82.9214 333.5 82C337 81 345.235 77.983 349.5 72.5C353 68 355.345 64.6072 355.5 60C355.541 58.78 355.603 57.6995 355.656 56.7728ZM355.656 56.7728C355.619 55.3123 355.562 54.0271 355.5 53C355.847 53.3475 355.777 54.661 355.656 56.7728Z" stroke="#35087A" stroke-width="2"/>
</svg>
