<svg width="427" height="364" viewBox="0 0 427 364" fill="none" xmlns="http://www.w3.org/2000/svg">
<path fill-rule="evenodd" clip-rule="evenodd" d="M17 303C7.5 230.5 2 158 2 128C2 99 5.83459 68.4951 7.5 62C12.5 42.5 16.6358 36.5082 23.5 28.5C29.5 21.5 45.6667 14.3333 57 11L78 6.99999L99.5 4.5C102.928 4.36814 106.692 4.20924 110.766 4.03722C153.042 2.25232 228.776 -0.945197 310.5 9.99997C313.164 10.3567 316.084 10.7302 319.189 11.1274C343.81 14.2766 380.082 18.9158 392.5 28.5C419 53 424.5 97 424.5 146C425.333 201 417.2 318.7 384 339.5C346.074 363.261 207.927 361.549 169.912 361.078H169.907C166.327 361.033 163.636 361 162 361C142.993 361 69.5 357.5 44 344.5C20.1564 332.344 19.1335 322.812 17.3832 306.501C17.2616 305.368 17.1365 304.202 17 303ZM41 281C44 297.5 50 305 55.5 309C55.8247 309.236 56.1652 309.5 56.5334 309.789C56.617 309.855 56.7019 309.921 56.7885 309.989C56.7901 309.991 56.7917 309.992 56.7933 309.993C62.7892 314.707 76.3423 325.363 144.5 330C182.182 332.563 305 327.5 331 324.5C333.03 324.104 335.011 323.757 336.944 323.418C354.54 320.335 368.238 317.935 379.5 285.5C392 249.5 394.852 191.999 395 181C396 106.5 391.5 89.5 388.5 80.5C388.287 79.8604 388.076 79.2108 387.862 78.5512C385.066 69.9291 381.721 59.6117 365 48C350.6 38 298.5 33.8333 275.5 33.5C227.167 31.8333 127.5 33 113.5 34C89.8695 35.6879 71.5 40 63 46.5C56.2 51.7 51.5 55.5 48.5 61C44.1667 69.3334 35.5 93.2 35.5 122C35.5 135 35.4348 146.956 35.375 157.917C35.2693 177.309 35.1805 193.583 35.5 207C36 228 37 259 41 281Z" fill="#4630EB"/>
<path fill-rule="evenodd" clip-rule="evenodd" d="M56.7885 309.989C56.7901 309.991 56.7917 309.992 56.7933 309.993L56.7885 309.989Z" fill="#4630EB"/>
<path d="M56.7933 309.993C62.7892 314.707 76.3423 325.363 144.5 330C182.182 332.563 305 327.5 331 324.5C333.03 324.104 335.011 323.757 336.944 323.418C354.54 320.335 368.238 317.935 379.5 285.5C392 249.5 394.852 191.999 395 181C396 106.5 391.5 89.5 388.5 80.5C388.287 79.8604 388.076 79.2108 387.862 78.5512C385.066 69.9291 381.721 59.6117 365 48C350.6 38 298.5 33.8333 275.5 33.5C227.167 31.8333 127.5 33 113.5 34C89.8695 35.6879 71.5 40 63 46.5C56.2 51.7 51.5 55.5 48.5 61C44.1667 69.3334 35.5 93.2 35.5 122C35.5 135 35.4348 146.956 35.375 157.917C35.2693 177.309 35.1805 193.583 35.5 207C36 228 37 259 41 281C44 297.5 50 305 55.5 309C55.8247 309.236 56.1652 309.5 56.5334 309.789C56.617 309.855 56.7019 309.921 56.7885 309.989M56.7933 309.993L56.7885 309.989M56.7933 309.993C56.7917 309.992 56.7901 309.991 56.7885 309.989M235 361H248M17 303C7.5 230.5 2 158 2 128C2 99 5.83459 68.4951 7.5 62C12.5 42.5 16.6358 36.5082 23.5 28.5C29.5 21.5 45.6667 14.3333 57 11L78 6.99999L99.5 4.5C102.928 4.36814 106.692 4.20924 110.766 4.03722C153.042 2.25232 228.776 -0.945197 310.5 9.99997C313.164 10.3567 316.084 10.7302 319.189 11.1274C343.81 14.2766 380.082 18.9158 392.5 28.5C419 53 424.5 97 424.5 146C425.333 201 417.2 318.7 384 339.5C346.074 363.261 207.927 361.549 169.912 361.078H169.907C166.327 361.033 163.636 361 162 361C142.993 361 69.5 357.5 44 344.5C20.1564 332.344 19.1335 322.812 17.3832 306.501C17.2616 305.368 17.1365 304.202 17 303Z" stroke="black" stroke-width="4"/>
<path d="M118 340.5C143.5 344.5 161.5 345.5 264.5 348C298.5 348 325.2 344.3 352 335.5C358 333.53 375.229 328.5 386 302.5C400.5 267.5 408.5 156.5 409 146C409.5 135.5 415 53.5 386 37.5C357 21.5 312 23.5 309.5 23C307 22.5 152 23.5 116 26.5C80 29.5 57.5 29.5 46.5 43C35.5 56.5 31 71.5 30 74C29 76.5 16.5 110 19.5 185C22.5 260 29.5 277 30.5 281C31.5 285 37 315 56 323C71.2 329.4 76.1502 333.935 118 340.5Z" stroke="black" stroke-width="2"/>
<path d="M220.5 323.5C305 319 335.5 315.5 341.5 313.5C347.5 311.5 355 310.5 360.5 303C364.9 297 378.667 228.833 385 195.5C385 195.5 366.5 262 331 286C295.5 310 220.5 323.5 220.5 323.5Z" fill="#233BB8" fill-opacity="0.3" stroke="#233BB8" stroke-opacity="0.3" stroke-width="2"/>
<path d="M41.5 122.5C42 114 43 99 45 90.5C47 82 53 65.5 57 61C61 56.5 71.5 49 79 46.5C86.5 44 108.5 41 116.5 41C122.9 41 170.167 40 193 39.5H196C196 39.5 116 50 87 68.5C58 87 41.5 122.5 41.5 122.5Z" fill="#6C80E9" fill-opacity="0.3" stroke="#4960D9" stroke-opacity="0.2" stroke-width="2"/>
</svg>
