<svg width="818" height="272" viewBox="0 0 818 272" fill="none" xmlns="http://www.w3.org/2000/svg">
<path fill-rule="evenodd" clip-rule="evenodd" d="M11.5 209.5C-2.86102e-06 170 2.40001 119.8 6.00001 79C10.5 28 68 21.5 70.5 21C88 17.5 165.557 9.75614 229.5 7C278 4.90948 322 3 416.5 3C498.007 2.99276 514.5 3 591.5 7C618.968 8.42688 728.742 14.6447 742 15.5C757.5 16.5 779 21.5 790 32C801 42.5 807 50.5 812.5 77.5C818 104.5 812.547 197.234 812 201.5C809.5 221 803.233 229.583 784 245.5C769.5 257.5 740.5 258 736 258.5C731.5 259 569.497 267.671 553.5 268C407.5 271 258.5 268.5 235.5 267C219.881 265.981 143 263 121.5 261.5C107.035 260.491 55.9269 258.393 41.5 248.5C24 236.5 21 232 14.5 218L11.5 209.5ZM54.5 217.5C66 225 71 227 91.5 231C126.333 233.167 199.7 237.6 214.5 238C233 238.5 386.5 242 429.5 242C472.5 242 698 232.5 725 230C752 227.5 769 217.5 778.5 201C788 184.5 787.5 142.5 787 138C786.5 133.5 785 92.5 782.5 82.5C780 72.5 780 46.5 721.5 36.5C663 26.5 460.5 24.5 422.5 24.5C384.5 24.5 242.5 29.7404 229 30C203 30.5 99 38 74.5 45C54.9 50.6 42.3333 63.6667 38.5 69.5C33.8333 75.5 25.2 96.7 28 133.5C31.5 179.5 36 191 38.5 197C41 203 43 210 54.5 217.5Z" fill="#D02337"/>
<path d="M91.5 231C71 227 66 225 54.5 217.5C43 210 41 203 38.5 197C36 191 31.5 179.5 28 133.5C25.2 96.7 33.8333 75.5 38.5 69.5C42.3333 63.6667 54.9 50.6 74.5 45C99 38 203 30.5 229 30C242.5 29.7404 384.5 24.5 422.5 24.5C460.5 24.5 663 26.5 721.5 36.5C780 46.5 780 72.5 782.5 82.5C785 92.5 786.5 133.5 787 138C787.5 142.5 788 184.5 778.5 201C769 217.5 752 227.5 725 230C698 232.5 472.5 242 429.5 242C386.5 242 233 238.5 214.5 238C199.7 237.6 126.333 233.167 91.5 231Z" fill="#57099B"/>
<path d="M11.5 209.5L9.09969 210.199L9.11925 210.266L9.14255 210.332L11.5 209.5ZM6.00001 79L3.50968 78.7803L6.00001 79ZM70.5 21L70.9903 23.4514L70.5 21ZM229.5 7L229.392 4.50232L229.5 7ZM591.5 7L591.37 9.49663L591.5 7ZM742 15.5L741.839 17.9948L742 15.5ZM812 201.5L809.52 201.182L812 201.5ZM784 245.5L785.594 247.426L784 245.5ZM553.5 268L553.551 270.5L553.5 268ZM235.5 267L235.663 264.505L235.5 267ZM121.5 261.5L121.326 263.994L121.5 261.5ZM41.5 248.5L40.0862 250.562L41.5 248.5ZM14.5 218L12.1426 218.832L12.1823 218.945L12.2325 219.053L14.5 218ZM416.5 3V5.5H416.5L416.5 3ZM91.5 231L91.0212 233.454L91.1817 233.485L91.3448 233.495L91.5 231ZM28 133.5L25.5072 133.69L28 133.5ZM38.5 69.5L40.4734 71.0349L40.5345 70.9562L40.5893 70.873L38.5 69.5ZM74.5 45L73.8132 42.5962L74.5 45ZM229 30L229.048 32.4995L229 30ZM214.5 238L214.568 235.501L214.5 238ZM13.9004 208.801C2.54697 169.805 4.8885 120.041 8.49033 79.2197L3.50968 78.7803C-0.0884845 119.559 -2.54698 170.195 9.09969 210.199L13.9004 208.801ZM8.49033 79.2197C10.6425 54.8287 25.3989 41.0812 40.1685 33.2726C55.0171 25.4224 69.5715 23.7352 70.9903 23.4514L70.0097 18.5485C70.0115 18.5482 69.9911 18.5522 69.933 18.5618C69.8793 18.5707 69.8101 18.5818 69.7213 18.5957C69.3833 18.6486 69.4741 18.6335 69.0268 18.7035C68.4564 18.7927 67.6894 18.9161 66.7557 19.0829C64.8886 19.4164 62.3599 19.9227 59.3845 20.6785C53.4426 22.188 45.681 24.7025 37.8315 28.8524C22.1012 37.1688 5.85753 52.1714 3.50968 78.7803L8.49033 79.2197ZM70.9903 23.4514C88.2878 19.992 165.681 12.2532 229.608 9.49768L229.392 4.50232C165.434 7.25912 87.7122 15.008 70.0097 18.5485L70.9903 23.4514ZM591.37 9.49663C618.834 10.9233 728.597 17.1405 741.839 17.9948L742.161 13.0052C728.888 12.1489 619.101 5.93046 591.63 4.50336L591.37 9.49663ZM741.839 17.9948C749.417 18.4837 758.471 19.9531 766.949 22.5758C775.468 25.2114 783.174 28.9406 788.274 33.8084L791.726 30.1916C785.826 24.5594 777.282 20.5386 768.426 17.7992C759.529 15.0469 750.083 13.5163 742.161 13.0052L741.839 17.9948ZM788.274 33.8084C793.7 38.9881 797.728 43.3968 801.106 49.7379C804.506 56.1203 807.322 64.6038 810.05 77.999L814.95 77.001C812.178 63.3962 809.244 54.3797 805.519 47.3871C801.772 40.3532 797.3 35.5119 791.726 30.1916L788.274 33.8084ZM810.05 77.999C811.375 84.5041 812.066 95.1589 812.32 107.716C812.572 120.218 812.39 134.431 812.019 147.957C811.274 175.073 809.775 199.195 809.52 201.182L814.48 201.818C814.772 199.539 816.273 175.16 817.017 148.094C817.389 134.528 817.573 120.228 817.319 107.615C817.065 95.0578 816.375 83.9959 814.95 77.001L810.05 77.999ZM809.52 201.182C808.301 210.694 806.195 217.318 802.18 223.479C798.117 229.714 791.995 235.638 782.406 243.574L785.594 247.426C795.238 239.445 801.866 233.119 806.369 226.209C810.922 219.223 813.199 211.806 814.48 201.818L809.52 201.182ZM782.406 243.574C775.682 249.139 765.356 252.178 755.818 253.85C746.262 255.525 738.283 255.731 735.724 256.015L736.276 260.985C738.217 260.769 746.988 260.474 756.682 258.775C766.394 257.072 777.818 253.861 785.594 247.426L782.406 243.574ZM735.724 256.015C731.335 256.503 569.419 265.172 553.449 265.501L553.551 270.5C569.574 270.17 731.665 261.497 736.276 260.985L735.724 256.015ZM553.449 265.501C407.462 268.5 258.551 265.998 235.663 264.505L235.337 269.495C258.449 271.002 407.538 273.5 553.551 270.5L553.449 265.501ZM235.663 264.505C227.819 263.994 204.651 262.992 180.816 261.933C156.938 260.872 132.384 259.753 121.674 259.006L121.326 263.994C132.116 264.747 156.752 265.869 180.594 266.928C204.48 267.989 227.562 268.988 235.337 269.495L235.663 264.505ZM121.674 259.006C114.368 258.496 98.0858 257.726 81.7718 255.848C73.6207 254.909 65.5279 253.7 58.607 252.125C51.6025 250.531 46.1038 248.626 42.9139 246.438L40.0862 250.562C44.1096 253.321 50.4096 255.387 57.4975 257C64.669 258.633 72.9623 259.866 81.1998 260.815C97.6628 262.711 114.167 263.494 121.326 263.994L121.674 259.006ZM42.9139 246.438C34.1952 240.46 29.299 236.486 25.7732 232.373C22.2668 228.282 20.0123 223.936 16.7675 216.947L12.2325 219.053C15.4877 226.064 17.9833 230.968 21.9769 235.627C25.9511 240.264 31.3048 244.54 40.0862 250.562L42.9139 246.438ZM16.8575 217.168L13.8575 208.668L9.14255 210.332L12.1426 218.832L16.8575 217.168ZM229.608 9.49768C278.087 7.40807 322.048 5.5 416.5 5.5V0.499999C321.952 0.499999 277.913 2.41089 229.392 4.50232L229.608 9.49768ZM416.5 5.5C497.982 5.49276 514.429 5.49966 591.37 9.49663L591.63 4.50336C514.571 0.500339 498.032 0.49276 416.5 0.499999L416.5 5.5ZM91.9788 228.546C81.7331 226.547 75.5337 225.078 70.4906 223.217C65.5005 221.376 61.5584 219.119 55.8657 215.406L53.1343 219.594C58.9416 223.381 63.2495 225.874 68.7594 227.908C74.2163 229.922 80.7669 231.453 91.0212 233.454L91.9788 228.546ZM55.8657 215.406C50.3764 211.826 47.2595 208.439 45.2168 205.318C43.1304 202.131 42.1202 199.188 40.8077 196.038L36.1923 197.962C37.3798 200.812 38.6196 204.369 41.0332 208.057C43.4905 211.811 47.1236 215.674 53.1343 219.594L55.8657 215.406ZM40.8077 196.038C38.4536 190.389 33.9835 179.188 30.4928 133.31L25.5072 133.69C29.0165 179.812 33.5464 191.611 36.1923 197.962L40.8077 196.038ZM30.4928 133.31C29.1102 115.139 30.5557 100.889 32.8892 90.4978C35.2378 80.04 38.4519 73.6339 40.4734 71.0349L36.5266 67.9652C33.8815 71.3661 30.4456 78.56 28.0107 89.4022C25.561 100.311 24.0898 115.061 25.5072 133.69L30.4928 133.31ZM40.5893 70.873C44.1431 65.4649 56.2437 52.8161 75.1868 47.4038L73.8132 42.5962C53.5563 48.3839 40.5235 61.8685 36.4107 68.1271L40.5893 70.873ZM75.1868 47.4038C81.1002 45.7143 92.0109 43.9517 105.63 42.2542C119.189 40.5642 135.265 38.9579 151.404 37.5531C183.703 34.7418 216.135 32.7479 229.048 32.4995L228.952 27.5005C215.865 27.7521 183.297 29.7582 150.971 32.5719C134.797 33.9796 118.655 35.5921 105.011 37.2926C91.4266 38.9858 80.1498 40.7857 73.8132 42.5962L75.1868 47.4038ZM229.048 32.4995C242.694 32.2371 384.504 27 422.5 27V22C384.496 22 242.306 27.2436 228.952 27.5005L229.048 32.4995ZM422.5 27C441.478 27 501.58 27.4997 564.243 29.249C626.991 31.0007 692.041 34.0006 721.079 38.9643L721.921 34.0357C692.459 28.9994 627.009 25.9993 564.382 24.251C501.67 22.5003 441.522 22 422.5 22V27ZM721.079 38.9643C750.008 43.9095 763.989 52.7313 771.093 61.116C778.234 69.5451 778.729 77.7252 780.075 83.1063L784.925 81.8937C783.771 77.2748 783.016 67.4549 774.907 57.884C766.761 48.2687 751.492 39.0905 721.921 34.0357L721.079 38.9643ZM780.075 83.1063C780.647 85.3961 781.197 89.6518 781.698 94.9917C782.195 100.273 782.63 106.446 783.005 112.468C783.746 124.39 784.257 135.95 784.515 138.276L789.485 137.724C789.243 135.55 788.754 124.36 787.995 112.157C787.62 106.116 787.18 99.8829 786.677 94.5239C786.178 89.2232 785.603 84.604 784.925 81.8937L780.075 83.1063ZM784.515 138.276C784.74 140.302 785.002 151.751 784.007 164.81C783.512 171.311 782.71 178.139 781.456 184.332C780.194 190.566 778.509 195.975 776.333 199.753L780.667 202.247C783.241 197.775 785.056 191.746 786.357 185.324C787.665 178.861 788.488 171.814 788.993 165.19C789.998 151.999 789.76 140.198 789.485 137.724L784.515 138.276ZM776.333 199.753C767.353 215.35 751.219 225.062 724.77 227.511L725.23 232.489C752.781 229.938 770.647 219.65 780.667 202.247L776.333 199.753ZM724.77 227.511C697.862 230.002 472.44 239.5 429.5 239.5V244.5C472.56 244.5 698.138 234.998 725.23 232.489L724.77 227.511ZM429.5 239.5C386.54 239.5 233.074 236.001 214.568 235.501L214.432 240.499C232.926 240.999 386.46 244.5 429.5 244.5V239.5ZM214.568 235.501C199.825 235.102 126.522 230.674 91.6552 228.505L91.3448 233.495C126.145 235.66 199.575 240.098 214.432 240.499L214.568 235.501Z" fill="black"/>
<path d="M32 223.5C35 227 48.5 238 84.5 249C136.5 251.5 252.8 257 302 259C351.2 261 494.5 258.167 560 256.5C612.5 255 723.3 250.9 746.5 246.5C769.7 242.1 782.5 229.667 786 224C791.167 218.667 801.7 200.9 802.5 172.5C803.3 144.1 804.1 104.5 799 79C797.667 72.3334 792.2 56.1 781 44.5C767 30 742 29 733.5 27.5C725 26 597.5 17.5 554 16.5C543.146 16.2505 469.332 13.5669 387.5 14C329.087 14.3091 265.608 17.2646 222.5 19C194 20.1474 149.7 24.1 120.5 26.5C84 29.5 74 32.5 59 38C47.5 42.2167 29.6616 53.6248 23.5 65C17 77 15.3333 100.167 14.5 108C13.8333 125 13.4 163.6 17 182C21.5 205 29 220 32 223.5Z" stroke="black" stroke-width="2"/>
<path d="M475.5 231C544 230.5 605 229 616 228.5C627 228 679.5 225.5 691 224.5C702.5 223.5 716.5 222.5 730 217.5C743.5 212.5 753.5 204.5 758.5 199.5C763.5 194.5 768.75 185.5 771.5 174.5C772.5 170.5 774 150 774 145.5V97C774.299 92.5099 769.5 130.5 769 133.5C768.5 136.5 762.5 156 760.5 160C758.5 164 752 172.5 744.5 179C737 185.5 699 200.5 689 203C679 205.5 632 215.5 616 217.5C600 219.5 563 224 555 225C549.046 225.744 478 229.5 475.5 231Z" fill="#35087A"/>
<path d="M774 145.5C774 150 772.5 170.5 771.5 174.5C768.75 185.5 763.5 194.5 758.5 199.5C753.5 204.5 743.5 212.5 730 217.5C716.5 222.5 702.5 223.5 691 224.5C679.5 225.5 627 228 616 228.5C605 229 544 230.5 475.5 231C478 229.5 549.046 225.744 555 225C563 224 600 219.5 616 217.5C632 215.5 679 205.5 689 203C699 200.5 737 185.5 744.5 179C752 172.5 758.5 164 760.5 160C762.5 156 768.5 136.5 769 133.5C769.5 130.5 774.299 92.5099 774 97M774 145.5C774 141 773.5 104.5 774 97M774 145.5V97" stroke="#35087A" stroke-width="2"/>
<path d="M370 40.5C291.5 41 255.5 40.5 246.5 40.5C237.5 40.5 135.5 45.5 121.5 47C107.5 48.5 81 50.5 64.5 62.5C48 74.5 49 83 47.5 89C46 95 45 114 44.5 119.5C44.1 123.9 44.3333 137.667 44.5 144C46 141.5 45.9 135.2 47.5 130C49.5 123.5 59 108.5 81 94C103 79.5 142.5 70.5 148 69C153.5 67.5 209 57 212.5 56C216 55 266.5 48.5 272 48.5C276.4 48.5 339.167 43.1667 370 40.5Z" fill="#9F66D1" stroke="#9F66D1" stroke-width="2"/>
</svg>
