<svg width="332" height="209" viewBox="0 0 332 209" fill="none" xmlns="http://www.w3.org/2000/svg">
<path fill-rule="evenodd" clip-rule="evenodd" d="M206.749 206C274.266 206 329 166.377 329 117.5C329 68.6228 274.266 29 206.749 29C139.231 29 84.4975 68.6228 84.4975 117.5C84.4975 166.377 139.231 206 206.749 206ZM203.334 177C247.843 177 283.924 150.585 283.924 118C283.924 85.4152 247.843 59 203.334 59C158.825 59 122.744 85.4152 122.744 118C122.744 150.585 158.825 177 203.334 177Z" fill="#5200BA"/>
<path d="M283.924 118C283.924 150.585 247.843 177 203.334 177C158.825 177 122.744 150.585 122.744 118C122.744 85.4152 158.825 59 203.334 59C247.843 59 283.924 85.4152 283.924 118Z" fill="black"/>
<path d="M40.7875 135.5C41.9258 136 54.6945 140.447 95.1262 153.647C88.2961 142.61 84.4975 130.376 84.4975 117.5C84.4975 110.622 85.5814 103.927 87.6323 97.5H55.1299L50.6535 109.36L44.4315 125.845L40.7875 135.5Z" fill="#CCCCCC"/>
<path d="M19 114C22.4148 116.5 25.6431 119.421 44.4315 125.845L50.6535 109.36C47.7559 108.282 41.8734 105.912 38.7386 104C34.6408 101.5 24.2319 96.5 21.5 86C18.7681 75.5 20.6944 64.3288 25.7622 50.5C33.2749 30 51.4873 10.1667 55.8128 4.5L42.8364 3H37.5C37.5 3 31.5126 10 24 21C16.4873 32 11.1467 40 4.99999 60.5C2.92912 67.4066 2.26813 78 5 91C7.73187 104 15.5852 111.5 19 114Z" fill="#0CB6FF"/>
<path d="M44.8853 126C44.7333 125.948 44.5821 125.897 44.4315 125.845M51.032 109.5C50.9125 109.456 50.7861 109.41 50.6535 109.36M84.4975 117.5C84.4975 166.377 139.231 206 206.749 206C274.266 206 329 166.377 329 117.5C329 68.6228 274.266 29 206.749 29C139.231 29 84.4975 68.6228 84.4975 117.5ZM84.4975 117.5C84.4975 130.376 88.2961 142.61 95.1262 153.647C54.6945 140.447 41.9258 136 40.7875 135.5L44.4315 125.845M84.4975 117.5C84.4975 110.622 85.5814 103.927 87.6323 97.5H55.1299L50.6535 109.36M44.4315 125.845C25.6431 119.421 22.4148 116.5 19 114C15.5852 111.5 7.73187 104 5 91C2.26813 78 2.92912 67.4066 4.99999 60.5C11.1467 40 16.4873 32 24 21C31.5126 10 37.5 3 37.5 3H42.8364L55.8128 4.5C51.4873 10.1667 33.2749 30 25.7622 50.5C20.6944 64.3288 18.7681 75.5 21.5 86C24.2319 96.5 34.6408 101.5 38.7386 104C41.8734 105.912 47.7559 108.282 50.6535 109.36M44.4315 125.845L50.6535 109.36M283.924 118C283.924 150.585 247.843 177 203.334 177C158.825 177 122.744 150.585 122.744 118C122.744 85.4152 158.825 59 203.334 59C247.843 59 283.924 85.4152 283.924 118Z" stroke="black" stroke-width="5"/>
<path d="M88.522 90C76.2059 84.5 70.5041 79.5 68.6795 77.5C66.771 75.4081 62.932 69.8 70.0479 59C77.1639 48.2 77.0047 41.647 74.8375 36.5C72.1006 30 65.2583 23.5 61.8372 21C58.4161 18.5 49.5212 14 49.5212 14L52.9423 10L57.0477 6C76.2059 15.5 83.784 25.6414 86.4693 33C89.2062 40.5 87.631 46.6045 86.4693 50C85.3076 53.3955 85.7851 52 80.3113 61.5C74.8375 71 79.516 73.9189 81.6797 75.5C84.4166 77.5 87.8377 79.5 93.3115 81.5L91.2589 85.5L88.522 90Z" fill="#1ADB2D"/>
<path d="M49 114.007L83.2112 117.007M302 118C302 157.765 257.887 190 203.472 190C149.056 190 104.943 157.765 104.943 118C104.943 78.2355 149.056 46 203.472 46C257.887 46 302 78.2355 302 118ZM88.522 90C76.2059 84.5 70.5041 79.5 68.6795 77.5C66.771 75.4081 62.932 69.8 70.0479 59C77.1639 48.2 77.0047 41.647 74.8375 36.5C72.1006 30 65.2583 23.5 61.8372 21C58.4161 18.5 49.5212 14 49.5212 14L52.9423 10L57.0477 6C76.2059 15.5 83.784 25.6414 86.4693 33C89.2062 40.5 87.631 46.6045 86.4693 50C85.3076 53.3955 85.7851 52 80.3113 61.5C74.8375 71 79.516 73.9189 81.6797 75.5C84.4166 77.5 87.8377 79.5 93.3115 81.5L91.2589 85.5L88.522 90Z" stroke="black" stroke-width="2"/>
<ellipse cx="199" cy="110.5" rx="71" ry="49.5" fill="#221C23"/>
<path d="M187.464 84.702C185.423 86.1966 170.452 95.1643 156.842 102.139C153.44 104.298 146.363 107.32 145.274 102.139C143.913 95.6625 147.996 93.1715 149.357 91.1786C150.718 89.1858 153.44 86.6948 159.564 83.2074C165.689 79.72 173.854 76.7307 177.937 75.2361C181.486 73.937 190.186 72.7451 190.867 76.7307C191.547 80.7164 189.506 83.2074 187.464 84.702Z" fill="#3C1B9C" stroke="#3C1B9C"/>
<path d="M162.641 105.203C162.578 105.109 162.469 105.016 162.313 104.922C162.188 104.828 162.031 104.75 161.844 104.688C161.656 104.625 161.469 104.609 161.281 104.641C161.125 104.641 161 104.703 160.906 104.828C160.813 104.984 160.641 105.578 160.391 106.609C160.172 107.609 159.938 108.859 159.688 110.359C159.438 111.859 159.219 113.531 159.031 115.375C158.844 117.219 158.75 119.047 158.75 120.859C158.75 122.172 158.797 123.547 158.891 124.984C158.984 126.391 159.094 127.688 159.219 128.875C159.375 130.062 159.547 131.047 159.734 131.828C159.953 132.578 160.172 132.953 160.391 132.953C160.609 132.984 160.906 132.75 161.281 132.25C161.656 131.75 162.016 131.188 162.359 130.562C162.703 129.906 163.016 129.281 163.297 128.688C163.609 128.062 163.813 127.641 163.906 127.422C164.031 127.078 164.203 126.703 164.422 126.297C164.641 125.859 164.859 125.469 165.078 125.125C165.297 124.75 165.516 124.453 165.734 124.234C165.953 123.984 166.141 123.859 166.297 123.859C166.484 123.859 166.641 124.047 166.766 124.422C166.922 124.797 167.031 125.25 167.094 125.781C167.188 126.281 167.25 126.812 167.281 127.375C167.313 127.906 167.328 128.344 167.328 128.688C167.328 129.312 167.203 130.094 166.953 131.031C166.734 131.969 166.438 132.875 166.063 133.75C165.719 134.625 165.328 135.375 164.891 136C164.484 136.625 164.094 136.922 163.719 136.891C163.344 136.859 162.734 136.641 161.891 136.234C161.078 135.828 160.234 135.359 159.359 134.828C158.484 134.297 157.688 133.766 156.969 133.234C156.25 132.703 155.828 132.281 155.703 131.969C155.547 131.688 155.313 131.016 155 129.953C154.719 128.859 154.422 127.547 154.109 126.016C153.797 124.484 153.516 122.797 153.266 120.953C153.047 119.109 152.938 117.25 152.938 115.375C152.938 113.5 152.953 111.656 152.984 109.844C153.016 108 153.078 106.359 153.172 104.922C153.297 103.484 153.484 102.328 153.734 101.453C153.984 100.547 154.328 100.062 154.766 100C155.641 99.9062 156.594 99.9688 157.625 100.188C158.656 100.375 159.688 100.672 160.719 101.078C161.75 101.484 162.734 101.953 163.672 102.484C164.641 102.984 165.5 103.516 166.25 104.078C167 104.609 167.594 105.125 168.031 105.625C168.5 106.125 168.75 106.547 168.781 106.891C168.813 107.422 168.75 108.016 168.594 108.672C168.438 109.328 168.25 109.969 168.031 110.594C167.813 111.188 167.578 111.734 167.328 112.234C167.109 112.703 166.938 113.031 166.813 113.219C166.656 113.438 166.469 113.672 166.25 113.922C166.031 114.172 165.797 114.391 165.547 114.578C165.328 114.766 165.094 114.906 164.844 115C164.625 115.062 164.422 115.016 164.234 114.859C164.109 114.766 163.984 114.469 163.859 113.969C163.766 113.469 163.656 112.875 163.531 112.188C163.438 111.5 163.344 110.766 163.25 109.984C163.156 109.172 163.063 108.422 162.969 107.734C162.906 107.047 162.844 106.469 162.781 106C162.719 105.531 162.672 105.266 162.641 105.203ZM180.547 110.453C180.797 110.609 181.031 110.922 181.25 111.391C181.5 111.828 181.719 112.344 181.906 112.938C182.125 113.5 182.297 114.109 182.422 114.766C182.578 115.422 182.703 116.031 182.797 116.594C182.922 117.156 183 117.641 183.031 118.047C183.063 118.422 183.063 118.656 183.031 118.75C182.969 118.875 182.781 119 182.469 119.125C182.188 119.25 181.766 119.391 181.203 119.547C180.641 119.703 179.859 119.875 178.859 120.062C178.797 118.344 178.672 117.047 178.484 116.172C178.297 115.266 178.094 114.625 177.875 114.25C177.625 113.812 177.359 113.594 177.078 113.594C176.797 113.719 176.547 113.875 176.328 114.062C176.109 114.219 175.922 114.391 175.766 114.578C175.578 114.797 175.406 115.031 175.25 115.281C175.188 115.375 175.125 115.594 175.063 115.938C175 116.281 174.938 116.797 174.875 117.484C174.875 117.703 174.859 118.156 174.828 118.844C174.828 119.531 174.813 120.328 174.781 121.234C174.781 122.141 174.766 123.094 174.734 124.094C174.734 125.094 174.719 126.031 174.688 126.906C174.688 127.75 174.672 128.469 174.641 129.062C174.641 129.656 174.625 130 174.594 130.094C174.531 130.25 174.375 130.469 174.125 130.75C173.875 131.031 173.594 131.297 173.281 131.547C172.969 131.766 172.672 131.953 172.391 132.109C172.109 132.234 171.922 132.219 171.828 132.062C171.734 131.969 171.641 131.562 171.547 130.844C171.453 130.125 171.344 129.25 171.219 128.219C171.125 127.156 171.016 126 170.891 124.75C170.766 123.5 170.656 122.297 170.563 121.141C170.469 119.984 170.391 118.953 170.328 118.047C170.266 117.109 170.219 116.438 170.188 116.031C170.156 115.438 170.125 114.781 170.094 114.062C170.063 113.344 170.031 112.672 170 112.047C170 111.391 170 110.828 170 110.359C170.031 109.859 170.094 109.562 170.188 109.469C170.25 109.375 170.453 109.359 170.797 109.422C171.172 109.453 171.563 109.547 171.969 109.703C172.406 109.828 172.813 110 173.188 110.219C173.563 110.438 173.813 110.641 173.938 110.828C174.031 110.984 174.125 111.219 174.219 111.531C174.813 111.219 175.375 110.938 175.906 110.688C176.469 110.406 177 110.203 177.5 110.078C178.031 109.953 178.547 109.922 179.047 109.984C179.547 110.016 180.047 110.172 180.547 110.453ZM188.188 122.453C188.688 122.266 189.25 122.062 189.875 121.844C190.531 121.594 191.156 121.375 191.75 121.188C192.344 120.969 192.875 120.781 193.344 120.625C193.813 120.469 194.156 120.344 194.375 120.25C194.344 119.906 194.297 119.516 194.234 119.078C194.203 118.609 194.156 118.172 194.094 117.766C194.031 117.328 193.953 116.953 193.859 116.641C193.766 116.328 193.672 116.141 193.578 116.078C193.328 115.984 192.906 115.906 192.313 115.844C191.75 115.75 191.156 115.766 190.531 115.891C189.938 116.016 189.391 116.25 188.891 116.594C188.391 116.938 188.109 117.484 188.047 118.234C187.984 118.734 187.969 119.359 188 120.109C188.031 120.859 188.094 121.641 188.188 122.453ZM198.359 123.203C198.328 123.266 197.953 123.391 197.234 123.578C196.516 123.766 195.656 123.969 194.656 124.188C193.656 124.375 192.594 124.578 191.469 124.797C190.344 124.984 189.375 125.141 188.563 125.266C188.719 126.516 188.906 127.641 189.125 128.641C189.344 129.609 189.531 130.219 189.688 130.469C189.844 130.688 190.047 130.891 190.297 131.078C190.516 131.234 190.781 131.391 191.094 131.547C191.438 131.672 191.844 131.766 192.313 131.828C192.656 131.922 192.984 131.797 193.297 131.453C193.547 131.141 193.766 130.594 193.953 129.812C194.172 129.031 194.281 127.797 194.281 126.109C195.25 125.953 196 125.859 196.531 125.828C197.094 125.797 197.5 125.797 197.75 125.828C198.063 125.859 198.25 125.906 198.313 125.969C198.344 126.062 198.344 126.297 198.313 126.672C198.281 127.047 198.203 127.516 198.078 128.078C197.984 128.609 197.859 129.203 197.703 129.859C197.578 130.484 197.422 131.094 197.234 131.688C197.047 132.25 196.844 132.766 196.625 133.234C196.406 133.672 196.172 133.984 195.922 134.172C195.172 134.734 194.234 135.016 193.109 135.016C191.984 134.984 190.875 134.828 189.781 134.547C188.688 134.234 187.703 133.875 186.828 133.469C185.953 133.031 185.406 132.672 185.188 132.391C185.031 132.203 184.891 131.734 184.766 130.984C184.641 130.203 184.531 129.266 184.438 128.172C184.375 127.078 184.328 125.875 184.297 124.562C184.266 123.25 184.281 121.969 184.344 120.719C184.438 119.469 184.563 118.312 184.719 117.25C184.906 116.188 185.156 115.328 185.469 114.672C185.938 113.734 186.703 112.969 187.766 112.375C188.828 111.781 189.953 111.375 191.141 111.156C192.328 110.938 193.453 110.906 194.516 111.062C195.609 111.219 196.422 111.562 196.953 112.094C197.266 112.406 197.547 113.031 197.797 113.969C198.047 114.875 198.203 115.984 198.266 117.297C198.266 117.422 198.281 117.781 198.313 118.375C198.344 118.969 198.359 119.609 198.359 120.297C198.391 120.953 198.406 121.578 198.406 122.172C198.406 122.766 198.391 123.109 198.359 123.203ZM213.641 111.344C213.828 111.562 214 111.797 214.156 112.047C214.313 112.266 214.453 112.578 214.578 112.984C214.703 113.359 214.797 113.859 214.859 114.484C214.953 115.109 215 115.922 215 116.922C215 118.516 214.953 120.125 214.859 121.75C214.797 123.344 214.734 124.75 214.672 125.969C214.641 127.062 214.609 128.078 214.578 129.016C214.547 129.953 214.516 130.781 214.484 131.5C214.453 132.188 214.406 132.734 214.344 133.141C214.313 133.547 214.281 133.766 214.25 133.797C214.125 133.891 213.922 133.859 213.641 133.703C213.391 133.516 213.109 133.281 212.797 133C212.516 132.719 212.25 132.422 212 132.109C211.75 131.797 211.594 131.547 211.531 131.359C211.531 131.203 211.484 130.75 211.391 130C210.641 130.438 209.813 130.75 208.906 130.938C208 131.094 207.094 131.156 206.188 131.125C205.313 131.062 204.5 130.891 203.75 130.609C203 130.328 202.438 129.953 202.063 129.484C201.906 129.297 201.766 129.016 201.641 128.641C201.547 128.266 201.453 127.844 201.359 127.375C201.297 126.875 201.234 126.359 201.172 125.828C201.109 125.266 201.063 124.75 201.031 124.281C200.969 123.062 201.125 122.016 201.5 121.141C201.875 120.234 202.563 119.562 203.563 119.125C204 118.938 204.578 118.844 205.297 118.844C206.047 118.812 206.781 118.844 207.5 118.938C208.25 119 208.922 119.094 209.516 119.219C210.109 119.312 210.484 119.391 210.641 119.453C210.516 117.859 210.422 116.484 210.359 115.328C210.297 114.141 210.172 113.375 209.984 113.031C209.828 112.812 209.641 112.594 209.422 112.375C209.234 112.219 208.984 112.047 208.672 111.859C208.359 111.672 207.984 111.531 207.547 111.438C207.203 111.375 206.891 111.516 206.609 111.859C206.359 112.172 206.125 112.734 205.906 113.547C205.719 114.328 205.609 115.531 205.578 117.156C204.484 117.188 203.641 117.188 203.047 117.156C202.484 117.094 202.063 117.031 201.781 116.969C201.438 116.906 201.234 116.828 201.172 116.734C201.109 116.609 201.141 116.156 201.266 115.375C201.391 114.562 201.563 113.688 201.781 112.75C202.031 111.812 202.313 110.922 202.625 110.078C202.969 109.234 203.328 108.703 203.703 108.484C204.453 108.047 205.344 107.891 206.375 108.016C207.438 108.141 208.469 108.406 209.469 108.812C210.469 109.219 211.359 109.672 212.141 110.172C212.922 110.672 213.422 111.062 213.641 111.344ZM210.734 125.031C210.734 124.875 210.75 124.672 210.781 124.422C210.813 124.141 210.828 123.859 210.828 123.578C210.828 123.297 210.813 123.031 210.781 122.781C210.781 122.531 210.75 122.344 210.688 122.219C210.594 122.031 210.313 121.875 209.844 121.75C209.406 121.625 208.906 121.547 208.344 121.516C207.781 121.453 207.25 121.438 206.75 121.469C206.25 121.469 205.906 121.531 205.719 121.656C205.469 121.812 205.281 122.031 205.156 122.312C205.063 122.594 205 123.031 204.969 123.625C204.969 123.906 204.984 124.203 205.016 124.516C205.047 124.828 205.078 125.141 205.109 125.453C205.172 125.734 205.234 125.984 205.297 126.203C205.391 126.422 205.484 126.562 205.578 126.625C205.797 126.781 206.172 126.922 206.703 127.047C207.266 127.141 207.828 127.172 208.391 127.141C208.953 127.078 209.469 126.891 209.938 126.578C210.406 126.266 210.672 125.75 210.734 125.031ZM227.984 111.906C228.016 112 228.016 112.266 227.984 112.703C227.953 113.109 227.891 113.578 227.797 114.109C227.734 114.609 227.656 115.078 227.563 115.516C227.469 115.922 227.391 116.172 227.328 116.266C227.016 116.297 226.703 116.312 226.391 116.312C226.078 116.281 225.781 116.266 225.5 116.266H224.516C224.484 118.328 224.438 120.375 224.375 122.406C224.313 124.438 224.234 126.266 224.141 127.891C224.047 129.484 223.938 130.781 223.813 131.781C223.719 132.781 223.625 133.297 223.531 133.328C223.313 133.359 223.063 133.266 222.781 133.047C222.5 132.828 222.219 132.562 221.938 132.25C221.688 131.906 221.453 131.562 221.234 131.219C221.047 130.844 220.938 130.516 220.906 130.234C220.75 128.328 220.609 126.516 220.484 124.797C220.359 123.047 220.266 121.5 220.203 120.156C220.078 118.594 220 117.141 219.969 115.797C219.625 115.766 219.281 115.719 218.938 115.656C218.625 115.594 218.297 115.531 217.953 115.469C217.641 115.406 217.313 115.344 216.969 115.281C216.906 115.219 216.828 115.078 216.734 114.859C216.641 114.609 216.547 114.344 216.453 114.062C216.391 113.781 216.328 113.516 216.266 113.266C216.203 112.984 216.172 112.781 216.172 112.656C216.172 112.562 216.516 112.469 217.203 112.375C217.922 112.281 218.797 112.203 219.828 112.141C219.766 110.484 219.719 109.047 219.688 107.828C219.688 106.578 219.734 105.734 219.828 105.297C219.922 104.703 220.172 104.141 220.578 103.609C221.016 103.047 221.469 102.562 221.938 102.156C222.438 101.75 222.891 101.453 223.297 101.266C223.734 101.047 224.016 100.984 224.141 101.078C224.234 101.141 224.313 101.469 224.375 102.062C224.438 102.625 224.484 103.391 224.516 104.359C224.547 105.328 224.563 106.469 224.563 107.781C224.563 109.062 224.563 110.422 224.563 111.859C225.5 111.797 226.297 111.781 226.953 111.812C227.609 111.812 227.953 111.844 227.984 111.906ZM233.141 122.453C233.641 122.266 234.203 122.062 234.828 121.844C235.484 121.594 236.109 121.375 236.703 121.188C237.297 120.969 237.828 120.781 238.297 120.625C238.766 120.469 239.109 120.344 239.328 120.25C239.297 119.906 239.25 119.516 239.188 119.078C239.156 118.609 239.109 118.172 239.047 117.766C238.984 117.328 238.906 116.953 238.813 116.641C238.719 116.328 238.625 116.141 238.531 116.078C238.281 115.984 237.859 115.906 237.266 115.844C236.703 115.75 236.109 115.766 235.484 115.891C234.891 116.016 234.344 116.25 233.844 116.594C233.344 116.938 233.063 117.484 233 118.234C232.938 118.734 232.922 119.359 232.953 120.109C232.984 120.859 233.047 121.641 233.141 122.453ZM243.313 123.203C243.281 123.266 242.906 123.391 242.188 123.578C241.469 123.766 240.609 123.969 239.609 124.188C238.609 124.375 237.547 124.578 236.422 124.797C235.297 124.984 234.328 125.141 233.516 125.266C233.672 126.516 233.859 127.641 234.078 128.641C234.297 129.609 234.484 130.219 234.641 130.469C234.797 130.688 235 130.891 235.25 131.078C235.469 131.234 235.734 131.391 236.047 131.547C236.391 131.672 236.797 131.766 237.266 131.828C237.609 131.922 237.938 131.797 238.25 131.453C238.5 131.141 238.719 130.594 238.906 129.812C239.125 129.031 239.234 127.797 239.234 126.109C240.203 125.953 240.953 125.859 241.484 125.828C242.047 125.797 242.453 125.797 242.703 125.828C243.016 125.859 243.203 125.906 243.266 125.969C243.297 126.062 243.297 126.297 243.266 126.672C243.234 127.047 243.156 127.516 243.031 128.078C242.938 128.609 242.813 129.203 242.656 129.859C242.531 130.484 242.375 131.094 242.188 131.688C242 132.25 241.797 132.766 241.578 133.234C241.359 133.672 241.125 133.984 240.875 134.172C240.125 134.734 239.188 135.016 238.063 135.016C236.938 134.984 235.828 134.828 234.734 134.547C233.641 134.234 232.656 133.875 231.781 133.469C230.906 133.031 230.359 132.672 230.141 132.391C229.984 132.203 229.844 131.734 229.719 130.984C229.594 130.203 229.484 129.266 229.391 128.172C229.328 127.078 229.281 125.875 229.25 124.562C229.219 123.25 229.234 121.969 229.297 120.719C229.391 119.469 229.516 118.312 229.672 117.25C229.859 116.188 230.109 115.328 230.422 114.672C230.891 113.734 231.656 112.969 232.719 112.375C233.781 111.781 234.906 111.375 236.094 111.156C237.281 110.938 238.406 110.906 239.469 111.062C240.563 111.219 241.375 111.562 241.906 112.094C242.219 112.406 242.5 113.031 242.75 113.969C243 114.875 243.156 115.984 243.219 117.297C243.219 117.422 243.234 117.781 243.266 118.375C243.297 118.969 243.313 119.609 243.313 120.297C243.344 120.953 243.359 121.578 243.359 122.172C243.359 122.766 243.344 123.109 243.313 123.203ZM252.125 101.594C252.188 101.781 252.203 102.516 252.172 103.797C252.172 105.047 252.125 106.594 252.031 108.438C251.969 110.25 251.875 112.203 251.75 114.297C251.625 116.359 251.484 118.312 251.328 120.156C251.203 121.969 251.063 123.516 250.906 124.797C250.781 126.047 250.656 126.766 250.531 126.953C250.219 127.453 249.75 127.75 249.125 127.844C248.5 127.906 248.031 127.906 247.719 127.844C247.625 127.812 247.531 127.469 247.438 126.812C247.344 126.156 247.25 125.281 247.156 124.188C247.094 123.094 247.031 121.844 246.969 120.438C246.906 119.031 246.859 117.594 246.828 116.125C246.797 114.625 246.766 113.156 246.734 111.719C246.703 110.25 246.688 108.922 246.688 107.734C246.688 106.547 246.703 105.547 246.734 104.734C246.766 103.922 246.813 103.406 246.875 103.188C247 102.75 247.313 102.359 247.813 102.016C248.313 101.672 248.859 101.422 249.453 101.266C250.047 101.078 250.594 101.016 251.094 101.078C251.625 101.109 251.969 101.281 252.125 101.594ZM251.328 131.125C251.453 131.344 251.5 131.656 251.469 132.062C251.469 132.438 251.422 132.844 251.328 133.281C251.266 133.688 251.156 134.094 251 134.5C250.875 134.875 250.734 135.188 250.578 135.438C250.453 135.625 250.281 135.781 250.063 135.906C249.844 136.031 249.609 136.109 249.359 136.141C249.109 136.203 248.875 136.234 248.656 136.234C248.438 136.234 248.266 136.234 248.141 136.234C247.953 136.203 247.75 136.062 247.531 135.812C247.344 135.562 247.172 135.266 247.016 134.922C246.891 134.547 246.797 134.156 246.734 133.75C246.672 133.312 246.688 132.906 246.781 132.531C246.875 132.188 247.141 131.875 247.578 131.594C248.016 131.281 248.484 131.047 248.984 130.891C249.516 130.734 250 130.672 250.438 130.703C250.906 130.703 251.203 130.844 251.328 131.125Z" fill="#7FDEFF"/>
</svg>
