<svg width="410" height="170" viewBox="0 0 410 170" fill="none" xmlns="http://www.w3.org/2000/svg">
<path d="M95 158C98.5 155.667 105.9 150.2 107.5 145H116.5L128.5 145.5C128.167 146.333 126.7 148.1 123.5 152.5C120.3 156.9 118.167 158 117.5 158H95Z" fill="#1ADB2D"/>
<path d="M183.609 161.406C182.245 158.927 179.926 152.375 181.563 146H197.419V153.969C197.419 156.106 198.19 161.431 199.935 162.433L201 162.5C200.611 162.656 200.257 162.618 199.935 162.433L183.609 161.406Z" fill="#0CB6FF"/>
<path d="M255.894 164.39C254.719 161.35 254.685 153.015 255.894 144H269.993C269.993 145.61 268.482 149.795 268.482 153.659C268.482 161.385 270.161 165.106 271 166L255.894 164.39Z" fill="#1ADB2D"/>
<path fill-rule="evenodd" clip-rule="evenodd" d="M3 93.5C3 63.5 4 46.5 6 37.5C12.2101 9.55443 43.5628 9.71173 66.5 7.99999C100 5.49999 146.417 3.93037 191 3.49999C249.293 2.93726 305 3 332.5 5.00001C364 7.29092 383 8.49999 389 11.5C395 14.5 401.5 20 404 31.5C406.5 43 407 57.5 407 79.5C407 101.5 405 114.5 400 122.5C395.686 129.402 389.5 136.5 368.5 140C347.5 143.5 288.5 144.5 266 144.5C235.5 144.5 165.5 146.899 111 144.5C84.5 143.333 34.8682 139.872 27 136.5C20 133.5 15.8333 129.5 10.5 123.5C6.5 119 3 109.5 3 93.5ZM79.5 114C102 114 139 115.1 187 115.5C200.333 115 230.5 115.5 272 114C307.977 112.7 329.333 111.333 335.5 110C341.167 108.667 353.3 102.9 356.5 90.5C359.7 78.1 359.167 60 358.5 52.5C358 49.1667 355.8 41.7 351 38.5C345 34.5 336.99 33.7441 334 33.5C309.5 31.5 287.5 29.5 265.5 29.5H183C168 29.8333 132 30.7 108 31.5C84 32.3 59 34.8333 49.5 36C46.1667 36.8333 38.2 40 33 46C26.5 53.5 27 66.5 27 78C27 89.5 29 97 29.5 99C30 101 31.5 105.5 39.5 110C45.9 113.6 66 114 79.5 114Z" fill="#5200BA"/>
<path d="M187 115.5C139 115.1 102 114 79.5 114C66 114 45.9 113.6 39.5 110C31.5 105.5 30 101 29.5 99C29 97 27 89.5 27 78C27 66.5 26.5 53.5 33 46C38.2 40 46.1667 36.8333 49.5 36C59 34.8333 84 32.3 108 31.5C132 30.7 168 29.8333 183 29.5H265.5C287.5 29.5 309.5 31.5 334 33.5C336.99 33.7441 345 34.5 351 38.5C355.8 41.7 358 49.1667 358.5 52.5C359.167 60 359.7 78.1 356.5 90.5C353.3 102.9 341.167 108.667 335.5 110C329.333 111.333 307.977 112.7 272 114C230.5 115.5 200.333 115 187 115.5Z" fill="#221C23"/>
<path d="M199.935 162.433L183.609 161.406C182.245 158.927 179.926 152.375 181.563 146H197.419V153.969C197.419 156.106 198.19 161.431 199.935 162.433ZM199.935 162.433L201 162.5C200.611 162.656 200.257 162.618 199.935 162.433ZM107.5 145C105.9 150.2 98.5 155.667 95 158H117.5C118.167 158 120.3 156.9 123.5 152.5C126.7 148.1 128.167 146.333 128.5 145.5L116.5 145H107.5ZM255.894 144C254.685 153.015 254.719 161.35 255.894 164.39L271 166C270.161 165.106 268.482 161.385 268.482 153.659C268.482 149.795 269.993 145.61 269.993 144H255.894ZM3 93.5C3 63.5 4 46.5 6 37.5C12.2101 9.55443 43.5628 9.71173 66.5 7.99999C100 5.49999 146.417 3.93037 191 3.49999C249.293 2.93726 305 3 332.5 5.00001C364 7.29092 383 8.49999 389 11.5C395 14.5 401.5 20 404 31.5C406.5 43 407 57.5 407 79.5C407 101.5 405 114.5 400 122.5C395.686 129.402 389.5 136.5 368.5 140C347.5 143.5 288.5 144.5 266 144.5C235.5 144.5 165.5 146.899 111 144.5C84.5 143.333 34.8682 139.872 27 136.5C20 133.5 15.8333 129.5 10.5 123.5C6.5 119 3 109.5 3 93.5ZM187 115.5C139 115.1 102 114 79.5 114C66 114 45.9 113.6 39.5 110C31.5 105.5 30 101 29.5 99C29 97 27 89.5 27 78C27 66.5 26.5 53.5 33 46C38.2 40 46.1667 36.8333 49.5 36C59 34.8333 84 32.3 108 31.5C132 30.7 168 29.8333 183 29.5H265.5C287.5 29.5 309.5 31.5 334 33.5C336.99 33.7441 345 34.5 351 38.5C355.8 41.7 358 49.1667 358.5 52.5C359.167 60 359.7 78.1 356.5 90.5C353.3 102.9 341.167 108.667 335.5 110C329.333 111.333 307.977 112.7 272 114C230.5 115.5 200.333 115 187 115.5Z" stroke="black" stroke-width="5"/>
<path d="M40 125.5C43.1667 126 56.5 127.3 84.5 128.5C123.5 129.333 160.002 131.418 203.5 131C255.5 130.5 315 128 345 126.5C363.5 125 378.658 123.615 385.5 107C389 98.5 389.583 94.5 390 74.5C390.5 50.5 391.5 48.5 387.5 39C385.831 35.0359 379.5 28 370.5 26C361.5 24 275.5 19.5 266.5 19.5H154L59.5 24C52.1667 24.3333 35.7 26.6 28.5 33C21.3 39.4 18.5 47.3333 18 50.5C17.5 54.5 16.5 65.7 16.5 78.5C16.5 91.3 16 94.5 18.5 107.5C20.5 114 22 115.8 26 119C30 122.2 37 124.667 40 125.5Z" stroke="black" stroke-width="2"/>
<path d="M238 36.5C236.5 37 162.167 36.1667 147.5 36.5L96 38C82.3333 38.1667 53.2 39.4 46 43C38.8 46.6 36.3333 52.8334 36 55.5V73.9162C37.5 71.5 39.2 63.3 46 58.5C54.5 52.5 79.5 48.5 91.5 46.5C103.5 44.5 135.5 42 140.5 41.5C144.5 41.1 239.5 36 238 36.5Z" fill="#331A79" stroke="#331A79" stroke-width="2"/>
<path d="M186 109.5C231.5 106.5 244.5 105.5 254.5 104.5C264.5 103.5 287.437 100.652 292 100C299 99 321.5 94 325 93C328.5 92 336.5 90 339.5 87.5C342.5 85 350.997 75.0439 351.5 66.5C352 58 351.5 81 351 84.5C350.571 87.5 350.5 96.5 343.5 100.5C336.5 104.5 328 105 321.5 105.5C316.3 105.9 229 108.333 186 109.5Z" fill="#2F006B" stroke="#2F006B" stroke-width="2"/>
</svg>
