<svg width="818" height="272" viewBox="0 0 818 272" fill="none" xmlns="http://www.w3.org/2000/svg">
<path fill-rule="evenodd" clip-rule="evenodd" d="M11.5 209.5C-2.86102e-06 170 2.40001 119.8 6.00001 79C10.5 28 68 21.5 70.5 21C88 17.5 165.557 9.75614 229.5 7C278 4.90948 322 3 416.5 3C498.007 2.99276 514.5 3 591.5 7C618.968 8.42688 728.742 14.6447 742 15.5C757.5 16.5 779 21.5 790 32C801 42.5 807 50.5 812.5 77.5C818 104.5 812.547 197.234 812 201.5C809.5 221 803.233 229.583 784 245.5C769.5 257.5 740.5 258 736 258.5C731.5 259 569.497 267.671 553.5 268C407.5 271 258.5 268.5 235.5 267C219.881 265.981 143 263 121.5 261.5C107.035 260.491 55.9269 258.393 41.5 248.5C24 236.5 21 232 14.5 218L11.5 209.5ZM54.5 217.5C66 225 71 227 91.5 231C126.333 233.167 199.7 237.6 214.5 238C233 238.5 386.5 242 429.5 242C472.5 242 698 232.5 725 230C752 227.5 769 217.5 778.5 201C788 184.5 787.5 142.5 787 138C786.5 133.5 785 92.5 782.5 82.5C780 72.5 780 46.5 721.5 36.5C663 26.5 460.5 24.5 422.5 24.5C384.5 24.5 242.5 29.7404 229 30C203 30.5 99 38 74.5 45C54.9 50.6 42.3333 63.6667 38.5 69.5C33.8333 75.5 25.2 96.7 28 133.5C31.5 179.5 36 191 38.5 197C41 203 43 210 54.5 217.5Z" fill="#5200BA"/>
<path d="M91.5 231C71 227 66 225 54.5 217.5C43 210 41 203 38.5 197C36 191 31.5 179.5 28 133.5C25.2 96.7 33.8333 75.5 38.5 69.5C42.3333 63.6667 54.9 50.6 74.5 45C99 38 203 30.5 229 30C242.5 29.7404 384.5 24.5 422.5 24.5C460.5 24.5 663 26.5 721.5 36.5C780 46.5 780 72.5 782.5 82.5C785 92.5 786.5 133.5 787 138C787.5 142.5 788 184.5 778.5 201C769 217.5 752 227.5 725 230C698 232.5 472.5 242 429.5 242C386.5 242 233 238.5 214.5 238C199.7 237.6 126.333 233.167 91.5 231Z" fill="#221C23"/>
<path fill-rule="evenodd" clip-rule="evenodd" d="M11.5 209.5C-2.86102e-06 170 2.40001 119.8 6.00001 79C10.5 28 68 21.5 70.5 21C88 17.5 165.557 9.75614 229.5 7C278 4.90948 322 3 416.5 3C498.007 2.99276 514.5 3 591.5 7C618.968 8.42688 728.742 14.6447 742 15.5C757.5 16.5 779 21.5 790 32C801 42.5 807 50.5 812.5 77.5C818 104.5 812.547 197.234 812 201.5C809.5 221 803.233 229.583 784 245.5C769.5 257.5 740.5 258 736 258.5C731.5 259 569.497 267.671 553.5 268C407.5 271 258.5 268.5 235.5 267C219.881 265.981 143 263 121.5 261.5C107.035 260.491 55.9269 258.393 41.5 248.5C24 236.5 21 232 14.5 218L11.5 209.5ZM54.5 217.5C66 225 71 227 91.5 231C126.333 233.167 199.7 237.6 214.5 238C233 238.5 386.5 242 429.5 242C472.5 242 698 232.5 725 230C752 227.5 769 217.5 778.5 201C788 184.5 787.5 142.5 787 138C786.5 133.5 785 92.5 782.5 82.5C780 72.5 780 46.5 721.5 36.5C663 26.5 460.5 24.5 422.5 24.5C384.5 24.5 242.5 29.7404 229 30C203 30.5 99 38 74.5 45C54.9 50.6 42.3333 63.6667 38.5 69.5C33.8333 75.5 25.2 96.7 28 133.5C31.5 179.5 36 191 38.5 197C41 203 43 210 54.5 217.5Z" stroke="black" stroke-width="5"/>
<path d="M91.5 231C71 227 66 225 54.5 217.5C43 210 41 203 38.5 197C36 191 31.5 179.5 28 133.5C25.2 96.7 33.8333 75.5 38.5 69.5C42.3333 63.6667 54.9 50.6 74.5 45C99 38 203 30.5 229 30C242.5 29.7404 384.5 24.5 422.5 24.5C460.5 24.5 663 26.5 721.5 36.5C780 46.5 780 72.5 782.5 82.5C785 92.5 786.5 133.5 787 138C787.5 142.5 788 184.5 778.5 201C769 217.5 752 227.5 725 230C698 232.5 472.5 242 429.5 242C386.5 242 233 238.5 214.5 238C199.7 237.6 126.333 233.167 91.5 231Z" stroke="black" stroke-width="5"/>
<path d="M32 223.5C35 227 48.5 238 84.5 249C136.5 251.5 252.8 257 302 259C351.2 261 494.5 258.167 560 256.5C612.5 255 723.3 250.9 746.5 246.5C769.7 242.1 782.5 229.667 786 224C791.167 218.667 801.7 200.9 802.5 172.5C803.3 144.1 804.1 104.5 799 79C797.667 72.3334 792.2 56.1 781 44.5C767 30 742 29 733.5 27.5C725 26 597.5 17.5 554 16.5C543.146 16.2505 469.332 13.5669 387.5 14C329.087 14.3091 265.608 17.2646 222.5 19C194 20.1474 149.7 24.1 120.5 26.5C84 29.5 74 32.5 59 38C47.5 42.2167 29.6616 53.6248 23.5 65C17 77 15.3333 100.167 14.5 108C13.8333 125 13.4 163.6 17 182C21.5 205 29 220 32 223.5Z" stroke="black" stroke-width="2"/>
<path d="M475.5 231C544 230.5 605 229 616 228.5C627 228 679.5 225.5 691 224.5C702.5 223.5 716.5 222.5 730 217.5C743.5 212.5 753.5 204.5 758.5 199.5C763.5 194.5 768.75 185.5 771.5 174.5C772.5 170.5 774 150 774 145.5V97C774.299 92.5099 769.5 130.5 769 133.5C768.5 136.5 762.5 156 760.5 160C758.5 164 752 172.5 744.5 179C737 185.5 699 200.5 689 203C679 205.5 632 215.5 616 217.5C600 219.5 563 224 555 225C549.046 225.744 478 229.5 475.5 231Z" fill="#2F006B"/>
<path d="M774 145.5C774 150 772.5 170.5 771.5 174.5C768.75 185.5 763.5 194.5 758.5 199.5C753.5 204.5 743.5 212.5 730 217.5C716.5 222.5 702.5 223.5 691 224.5C679.5 225.5 627 228 616 228.5C605 229 544 230.5 475.5 231C478 229.5 549.046 225.744 555 225C563 224 600 219.5 616 217.5C632 215.5 679 205.5 689 203C699 200.5 737 185.5 744.5 179C752 172.5 758.5 164 760.5 160C762.5 156 768.5 136.5 769 133.5C769.5 130.5 774.299 92.5099 774 97M774 145.5C774 141 773.5 104.5 774 97M774 145.5V97" stroke="#2F006B" stroke-width="2"/>
<path d="M370 40.5C291.5 41 255.5 40.5 246.5 40.5C237.5 40.5 135.5 45.5 121.5 47C107.5 48.5 81 50.5 64.5 62.5C48 74.5 49 83 47.5 89C46 95 45 114 44.5 119.5C44.1 123.9 44.3333 137.667 44.5 144C46 141.5 45.9 135.2 47.5 130C49.5 123.5 59 108.5 81 94C103 79.5 142.5 70.5 148 69C153.5 67.5 209 57 212.5 56C216 55 266.5 48.5 272 48.5C276.4 48.5 339.167 43.1667 370 40.5Z" fill="#331A79" stroke="#331A79" stroke-width="2"/>
</svg>
